<svg width="24" height="24" viewBox="0 0 24 24" fill="none" xmlns="http://www.w3.org/2000/svg">
<path fill-rule="evenodd" clip-rule="evenodd" d="M15.36 12.48H16.32V5.28C16.32 5.21664 16.3066 5.15328 16.2826 5.09568C16.2586 5.03616 16.2221 4.98432 16.1789 4.94016L11.3808 0.14208C11.3366 0.09792 11.2838 0.0624 11.2253 0.0384C11.1667 0.01344 11.1034 0 11.04 0H0.48C0.21504 0 0 0.21504 0 0.48V20.64C0 20.905 0.21504 21.12 0.48 21.12H9.12V20.16H0.96V0.96H10.56V5.28C10.56 5.54496 10.775 5.76 11.04 5.76H15.36V12.48ZM11.52 1.63872L14.6813 4.8H11.52V1.63872ZM22.8998 14.0602L20.4998 11.6602C20.3194 11.4797 20.0006 11.4797 19.8211 11.6602L12.6202 18.8621C12.5654 18.9168 12.5309 18.983 12.5088 19.0512C12.5083 19.0528 12.5076 19.0543 12.5067 19.0558C12.5058 19.0573 12.5046 19.0588 12.5035 19.0603C12.5014 19.0632 12.4992 19.0661 12.4982 19.0694L11.5382 22.4294C11.4902 22.5974 11.5363 22.7779 11.6602 22.9008C11.7514 22.992 11.8742 23.041 12 23.041C12.0442 23.041 12.0883 23.0352 12.1325 23.0218L15.4925 22.0618C15.4958 22.0608 15.4987 22.0586 15.5016 22.0565C15.5045 22.0543 15.5074 22.0522 15.5107 22.0512C15.5789 22.0291 15.6461 21.9936 15.6998 21.9398L22.9008 14.7379C23.088 14.5517 23.088 14.2483 22.8998 14.0602ZM15.36 20.9232L13.6387 19.2019L18.241 14.5987L19.9622 16.32L15.36 20.9232ZM14.4442 21.3648L13.1971 20.1178L12.6989 21.864L14.4442 21.3648ZM20.641 15.6413L18.9197 13.92L20.161 12.6787L21.8822 14.4L20.641 15.6413Z" fill="#3E3832"/>
</svg>
