<svg width="24" height="24" viewBox="0 0 24 24" fill="none" xmlns="http://www.w3.org/2000/svg">
<path fill-rule="evenodd" clip-rule="evenodd" d="M11 1H1V21H10.5V22H0.5C0.224 22 0 21.776 0 21.5V0.5C0 0.224 0.224 0 0.5 0H11.5C11.567 0 11.632 0.014 11.692 0.04C11.753 0.065 11.808 0.102 11.854 0.148L16.847 5.142C16.896 5.19 16.936 5.247 16.962 5.311C16.9647 5.3176 16.9657 5.32479 16.9666 5.3321C16.9674 5.33809 16.9682 5.34414 16.97 5.35L16.97 5.35001C16.985 5.39801 17 5.44601 17 5.5V5.501V5.502V9.5H16V6H11.5C11.224 6 11 5.776 11 5.5V1ZM15.292 5L12 1.707V5H15.292Z" fill="#3E3832"/>
<path d="M17 10C13.1401 10 10 13.1407 10 17C10 20.8593 13.1401 24 17 24C20.8593 24 24 20.8593 24 17C24 13.1407 20.8593 10 17 10Z" fill="#057967"/>
<path d="M15.6232 18.4237L19.3915 15.0176C19.6203 14.8103 19.98 14.8212 20.1945 15.0432C20.409 15.2653 20.3968 15.6138 20.1675 15.8215L15.9969 19.5916C15.8907 19.687 15.7523 19.7387 15.6101 19.7387C15.4608 19.7387 15.3173 19.6823 15.2082 19.5778L13.8184 18.2316C13.5967 18.0169 13.5967 17.6684 13.8184 17.4537C14.04 17.2389 14.3999 17.2389 14.6216 17.4537L15.6232 18.4237Z" fill="white"/>
</svg>
