<svg width="121" height="121" viewBox="0 0 121 121" fill="none" xmlns="http://www.w3.org/2000/svg">
<path fill-rule="evenodd" clip-rule="evenodd" d="M56 112C86.9279 112 112 86.9279 112 56C112 25.0721 86.9279 0 56 0C25.0721 0 0 25.0721 0 56C0 86.9279 25.0721 112 56 112Z" fill="#E0F5FB"/>
<path d="M89.5 114.286C100.684 114.286 109.75 103.263 109.75 89.6667C109.75 76.0699 100.684 65.0476 89.5 65.0476C78.3162 65.0476 69.25 76.0699 69.25 89.6667C69.25 103.263 78.3162 114.286 89.5 114.286Z" fill="#D87F0A"/>
<path d="M89.5 105.333C96.9558 105.333 103 99.3212 103 91.9048C103 84.4884 96.9558 78.4762 89.5 78.4762C82.0442 78.4762 76 84.4884 76 91.9048C76 99.3212 82.0442 105.333 89.5 105.333Z" fill="#FFD399"/>
<path d="M107.497 121C114.952 121 120.995 114.988 120.995 107.571C120.995 100.155 114.952 94.1429 107.497 94.1429C100.043 94.1429 94 100.155 94 107.571C94 114.988 100.043 121 107.497 121Z" fill="#D87F0A"/>
<path d="M107.5 116.524C111.228 116.524 114.25 113.518 114.25 109.81C114.25 106.101 111.228 103.095 107.5 103.095C103.772 103.095 100.75 106.101 100.75 109.81C100.75 113.518 103.772 116.524 107.5 116.524Z" fill="#F8CEA0"/>
<path d="M107.5 100.857C108.743 100.857 109.75 99.8551 109.75 98.6191C109.75 97.383 108.743 96.381 107.5 96.381C106.257 96.381 105.25 97.383 105.25 98.6191C105.25 99.8551 106.257 100.857 107.5 100.857Z" fill="#F8CEA0"/>
<path d="M114.25 103.095C115.493 103.095 116.5 102.093 116.5 100.857C116.5 99.6211 115.493 98.6191 114.25 98.6191C113.007 98.6191 112 99.6211 112 100.857C112 102.093 113.007 103.095 114.25 103.095Z" fill="#F8CEA0"/>
<path d="M100.75 103.095C101.993 103.095 103 102.093 103 100.857C103 99.6211 101.993 98.6191 100.75 98.6191C99.5074 98.6191 98.5 99.6211 98.5 100.857C98.5 102.093 99.5074 103.095 100.75 103.095Z" fill="#F8CEA0"/>
<path d="M71.4975 121C78.9519 121 84.9949 114.988 84.9949 107.571C84.9949 100.155 78.9519 94.1429 71.4975 94.1429C64.043 94.1429 58 100.155 58 107.571C58 114.988 64.043 121 71.4975 121Z" fill="#D87F0A"/>
<path d="M71.5 116.524C75.2279 116.524 78.25 113.518 78.25 109.81C78.25 106.101 75.2279 103.095 71.5 103.095C67.7721 103.095 64.75 106.101 64.75 109.81C64.75 113.518 67.7721 116.524 71.5 116.524Z" fill="#F8CEA0"/>
<path d="M71.5 100.857C72.7426 100.857 73.75 99.8551 73.75 98.6191C73.75 97.383 72.7426 96.381 71.5 96.381C70.2574 96.381 69.25 97.383 69.25 98.6191C69.25 99.8551 70.2574 100.857 71.5 100.857Z" fill="#F8CEA0"/>
<path d="M78.25 103.095C79.4926 103.095 80.5 102.093 80.5 100.857C80.5 99.6211 79.4926 98.6191 78.25 98.6191C77.0074 98.6191 76 99.6211 76 100.857C76 102.093 77.0074 103.095 78.25 103.095Z" fill="#F8CEA0"/>
<path d="M64.75 103.095C65.9926 103.095 67 102.093 67 100.857C67 99.6211 65.9926 98.6191 64.75 98.6191C63.5074 98.6191 62.5 99.6211 62.5 100.857C62.5 102.093 63.5074 103.095 64.75 103.095Z" fill="#F8CEA0"/>
<path d="M89.5 78.4762C104.412 78.4762 116.5 67.4539 116.5 53.8571C116.5 40.2604 104.412 29.2381 89.5 29.2381C74.5883 29.2381 62.5 40.2604 62.5 53.8571C62.5 67.4539 74.5883 78.4762 89.5 78.4762Z" fill="#D87F0A"/>
<path d="M80.4742 51.8731C81.6977 52.0894 83.0356 50.2905 83.4627 47.8551C83.8897 45.4198 83.244 43.2702 82.0206 43.0539C80.7971 42.8376 79.4591 44.6365 79.0321 47.0719C78.6051 49.5073 79.2507 51.6569 80.4742 51.8731Z" fill="#262626"/>
<path d="M97.7704 51.8731C96.547 52.0894 95.209 50.2905 94.782 47.8551C94.3549 45.4198 95.0006 43.2702 96.2241 43.0539C97.4475 42.8376 98.7855 44.6365 99.2125 47.0719C99.6395 49.5073 98.9939 51.6569 97.7704 51.8731Z" fill="#262626"/>
<path d="M89.5 74C96.9558 74 103 67.9879 103 60.5715C103 53.1551 96.9558 47.1429 89.5 47.1429C82.0442 47.1429 76 53.1551 76 60.5715C76 67.9879 82.0442 74 89.5 74Z" fill="#FFD399"/>
<path d="M109.75 44.9048C104.779 44.9048 100.75 40.8966 100.75 35.9524C100.75 31.0081 104.779 27 109.75 27C114.721 27 118.75 31.0081 118.75 35.9524C118.75 40.8966 114.721 44.9048 109.75 44.9048Z" fill="#D87F0A"/>
<path d="M109.75 40.4286C107.265 40.4286 105.25 38.4245 105.25 35.9524C105.25 33.4803 107.265 31.4762 109.75 31.4762C112.235 31.4762 114.25 33.4803 114.25 35.9524C114.25 38.4245 112.235 40.4286 109.75 40.4286Z" fill="#FFD399"/>
<path d="M69.25 44.9048C74.2206 44.9048 78.25 40.8966 78.25 35.9524C78.25 31.0081 74.2206 27 69.25 27C64.2794 27 60.25 31.0081 60.25 35.9524C60.25 40.8966 64.2794 44.9048 69.25 44.9048Z" fill="#D87F0A"/>
<path d="M69.25 40.4286C71.7353 40.4286 73.75 38.4245 73.75 35.9524C73.75 33.4803 71.7353 31.4762 69.25 31.4762C66.7647 31.4762 64.75 33.4803 64.75 35.9524C64.75 38.4245 66.7647 40.4286 69.25 40.4286Z" fill="#FFD399"/>
<path d="M89.5 62.8095C91.9853 62.8095 94 60.8054 94 58.3333C94 55.8612 91.9853 53.8571 89.5 53.8571C87.0147 53.8571 85 55.8612 85 58.3333C85 60.8054 87.0147 62.8095 89.5 62.8095Z" fill="#8B5F26"/>
<path d="M76 71.7619C76 71.7619 67.4286 74.4476 63.1429 79.819C58.8571 85.1905 58 90.5619 58 93.2476C58 95.9333 59.2857 98.619 63.1429 98.619C67 98.619 68.2857 94.1429 68.2857 94.1429C68.2857 94.1429 70.8571 83.4 73.4286 79.819C76 76.2381 76 71.7619 76 71.7619Z" fill="#D87F0A"/>
<path d="M103 71.7619C103 71.7619 111.571 74.4476 115.857 79.819C120.143 85.1905 121 90.5619 121 93.2476C121 95.9333 119.714 98.619 115.857 98.619C112 98.619 110.714 94.1429 110.714 94.1429C110.714 94.1429 108.143 83.4 105.571 79.819C103 76.2381 103 71.7619 103 71.7619Z" fill="#D87F0A"/>
</svg>
