<svg width="1em" height="1em" viewBox="0 0 24 24" fill="none" xmlns="http://www.w3.org/2000/svg"><mask id="DataFilled_svg__a" fill="#fff"><path fill-rule="evenodd" clip-rule="evenodd" d="M9 1a1 1 0 011-1h4a1 1 0 011 1v19H9V1zM2 12a1 1 0 00-1 1v7h6v-7a1 1 0 00-1-1H2zm22 10H0v2h24v-2zM18 6a1 1 0 00-1 1v13h6V7a1 1 0 00-1-1h-4z"></path></mask><path fill-rule="evenodd" clip-rule="evenodd" d="M9 1a1 1 0 011-1h4a1 1 0 011 1v19H9V1zM2 12a1 1 0 00-1 1v7h6v-7a1 1 0 00-1-1H2zm22 10H0v2h24v-2zM18 6a1 1 0 00-1 1v13h6V7a1 1 0 00-1-1h-4z" fill="currentColor"></path><path d="M15 20v2h2v-2h-2zm-6 0H7v2h2v-2zm-8 0h-2v2h2v-2zm6 0v2h2v-2H7zm-7 2v-2h-2v2h2zm24 0h2v-2h-2v2zM0 24h-2v2h2v-2zm24 0v2h2v-2h-2zm-7-4h-2v2h2v-2zm6 0v2h2v-2h-2zM10-2a3 3 0 00-3 3h4a1 1 0 01-1 1v-4zm4 0h-4v4h4v-4zm3 3a3 3 0 00-3-3v4a1 1 0 01-1-1h4zm0 19V1h-4v19h4zm-8 2h6v-4H9v4zM7 1v19h4V1H7zM3 13a1 1 0 01-1 1v-4a3 3 0 00-3 3h4zm0 7v-7h-4v7h4zm4-2H1v4h6v-4zm-2-5v7h4v-7H5zm1 1a1 1 0 01-1-1h4a3 3 0 00-3-3v4zm-4 0h4v-4H2v4zM0 24h24v-4H0v4zm2 0v-2h-4v2h4zm22-2H0v4h24v-4zm-2 0v2h4v-2h-4zM19 7a1 1 0 01-1 1V4a3 3 0 00-3 3h4zm0 13V7h-4v13h4zm4-2h-6v4h6v-4zM21 7v13h4V7h-4zm1 1a1 1 0 01-1-1h4a3 3 0 00-3-3v4zm-4 0h4V4h-4v4z" fill="currentColor" mask="url(#DataFilled_svg__a)"></path></svg>
