<svg width="41" height="42" viewBox="0 0 41 42" fill="none" xmlns="http://www.w3.org/2000/svg">
<circle cx="20" cy="20" r="20" fill="#EAF0EF"/>
<path fill-rule="evenodd" clip-rule="evenodd" d="M37.961 24.308C37.936 24.247 37.899 24.192 37.853 24.146L31.854 18.147C31.808 18.101 31.753 18.064 31.692 18.039C31.632 18.014 31.567 18 31.5 18H20.5C20.224 18 20 18.224 20 18.5V41.5C20 41.776 20.224 42 20.5 42H37.5C37.776 42 38 41.776 38 41.5V24.5C38 24.433 37.986 24.368 37.961 24.308ZM32 19.707L36.293 24H32V19.707ZM21 41V19H31V24.5C31 24.776 31.224 25 31.5 25H37V41H21Z" fill="#102723"/>
</svg>
