<svg width="32" height="32" viewBox="0 0 32 32" fill="none" xmlns="http://www.w3.org/2000/svg">
<path fill-rule="evenodd" clip-rule="evenodd" d="M27.948 8.41067C27.9147 8.32933 27.8653 8.256 27.804 8.19467L19.8053 0.196C19.744 0.134667 19.6707 0.0853333 19.5893 0.052C19.5093 0.0186667 19.4227 0 19.3333 0H4.66667C4.29867 0 4 0.298667 4 0.666667V31.3333C4 31.7013 4.29867 32 4.66667 32H27.3333C27.7013 32 28 31.7013 28 31.3333V8.66667C28 8.57733 27.9813 8.49067 27.948 8.41067ZM20 2.276L25.724 8H20V2.276ZM5.33333 30.6667V1.33333H18.6667V8.66667C18.6667 9.03467 18.9653 9.33333 19.3333 9.33333H26.6667V30.6667H5.33333Z" fill="#3E3832"/>
</svg>
