<svg width="48" height="40" viewBox="0 0 48 40" fill="none" xmlns="http://www.w3.org/2000/svg">
<rect width="40" height="40" rx="20" fill="#EAF0EF"/>
<path fill-rule="evenodd" clip-rule="evenodd" d="M42.7064 6.28209L47.7058 11.2838C48.0977 11.6759 48.0977 12.3081 47.7078 12.6962L32.7077 27.7052C32.5957 27.8173 32.4558 27.8913 32.3138 27.9373C32.3068 27.9393 32.3008 27.9438 32.2948 27.9483C32.2888 27.9528 32.2828 27.9573 32.2758 27.9593L25.2767 29.96C25.1847 29.988 25.0927 30 25.0007 30C24.7388 30 24.4828 29.898 24.2928 29.7079C24.0348 29.4518 23.9389 29.0757 24.0388 28.7256L26.0386 21.7232C26.0406 21.7162 26.0451 21.7102 26.0496 21.7042C26.0541 21.6982 26.0586 21.6922 26.0606 21.6852C26.1066 21.5432 26.1786 21.4051 26.2926 21.2911L41.2926 6.28209C41.6666 5.90597 42.3305 5.90597 42.7064 6.28209ZM28.4143 21.9994L31.9998 25.5866L41.5866 15.9934L38.0011 12.4062L28.4143 21.9994ZM27.4944 23.9082L30.0921 26.5071L26.4565 27.5474L27.4944 23.9082ZM39.4148 10.9912L43.0003 14.5784L45.586 11.9915L42.0005 8.4043L39.4148 10.9912Z" fill="black"/>
</svg>
