<svg width="24" height="24" viewBox="0 0 24 24" fill="none" xmlns="http://www.w3.org/2000/svg">
<path fill-rule="evenodd" clip-rule="evenodd" d="M12.1987 11.9997L22.8998 1.29957C23.087 1.11237 23.087 0.808052 22.8998 0.620852C22.7126 0.433652 22.4083 0.433652 22.2211 0.620852L11.52 11.321L0.819836 0.619892C0.632636 0.432692 0.328316 0.432692 0.141116 0.619892C-0.0460841 0.807092 -0.0460841 1.11141 0.141116 1.29861L10.8413 11.9997L0.140156 22.6999C-0.0470441 22.8871 -0.0470441 23.1914 0.140156 23.3786C0.234236 23.4727 0.357116 23.5197 0.479996 23.5197C0.602876 23.5197 0.725756 23.4727 0.819836 23.3796L11.52 12.6785L22.2202 23.3786C22.3142 23.4727 22.4371 23.5197 22.56 23.5197C22.6829 23.5197 22.8058 23.4727 22.8998 23.3796C23.087 23.1924 23.087 22.8881 22.8998 22.7009L12.1987 11.9997Z" fill="white"/>
</svg>
