<svg width="48" height="48" viewBox="0 0 48 48" fill="none" xmlns="http://www.w3.org/2000/svg">
<g clip-path="url(#clip0)">
<rect width="48" height="48" fill="white"/>
<g opacity="0.7">
<rect width="38" height="38" rx="19" fill="#E0D8E9"/>
</g>
<path fill-rule="evenodd" clip-rule="evenodd" d="M37.48 31.64H38.76V22.04C38.76 21.9555 38.7421 21.871 38.7101 21.7942C38.6781 21.7149 38.6294 21.6458 38.5718 21.5869L32.1744 15.1894C32.1155 15.1306 32.0451 15.0832 31.967 15.0512C31.889 15.0179 31.8045 15 31.72 15H17.64C17.2867 15 17 15.2867 17 15.64V42.52C17 42.8733 17.2867 43.16 17.64 43.16H29.16V41.88H18.28V16.28H31.08V22.04C31.08 22.3933 31.3667 22.68 31.72 22.68H37.48V31.64ZM32.36 17.185L36.575 21.4H32.36V17.185ZM47.5331 33.7469L44.3331 30.5469C44.0925 30.3062 43.6675 30.3062 43.4282 30.5469L33.8269 40.1494C33.7539 40.2224 33.7078 40.3107 33.6784 40.4016C33.6771 40.4061 33.6742 40.4099 33.6714 40.4138C33.6685 40.4176 33.6656 40.4214 33.6643 40.4259L32.3843 44.9059C32.3203 45.1299 32.3818 45.3706 32.5469 45.5344C32.6685 45.656 32.8323 45.7213 33 45.7213C33.0589 45.7213 33.1178 45.7136 33.1766 45.6957L37.6566 44.4157C37.6611 44.4144 37.665 44.4115 37.6688 44.4086C37.6726 44.4058 37.6765 44.4029 37.681 44.4016C37.7718 44.3722 37.8614 44.3248 37.9331 44.2531L47.5344 34.6506C47.784 34.4022 47.784 33.9978 47.5331 33.7469ZM37.48 42.8976L35.185 40.6026L41.3213 34.465L43.6163 36.76L37.48 42.8976ZM36.2589 43.4864L34.5962 41.8237L33.9318 44.152L36.2589 43.4864ZM44.5213 35.855L42.2262 33.56L43.8813 31.905L46.1763 34.2L44.5213 35.855Z" fill="#3E3832"/>
</g>
<defs>
<clipPath id="clip0">
<rect width="48" height="48" fill="white"/>
</clipPath>
</defs>
</svg>
