<svg width="18" height="18" viewBox="0 0 18 18" fill="none" xmlns="http://www.w3.org/2000/svg">
<path fill-rule="evenodd" clip-rule="evenodd" d="M17.1265 0.873482C18.2912 2.03812 18.2912 3.92638 17.1265 5.09103L6.05466 16.1621L0.511505 18L0 17.4885L1.83683 11.9445L12.9086 0.873482C14.0734 -0.291161 15.9617 -0.291161 17.1265 0.873482ZM13.9631 6.14541L11.8542 4.03664L3.1412 12.749L2.09623 15.9027L5.25117 14.8568L13.9631 6.14541ZM16.072 1.92787C15.5161 1.37202 14.6305 1.34675 14.0447 1.85207L13.9631 1.92787L12.9086 2.98225L15.0175 5.09103L16.072 4.03664C16.6279 3.48079 16.6532 2.59527 16.1478 2.00945L16.072 1.92787Z" fill="#0B483F"/>
</svg>
