<svg width="24" height="22" viewBox="0 0 24 22" fill="none" xmlns="http://www.w3.org/2000/svg">
<path fill-rule="evenodd" clip-rule="evenodd" d="M22.2071 2.20706L18.5334 5.88074C20.4527 7.04583 22.2749 8.75224 24 11C20.4183 15.6666 16.4183 18 12 18C10.3918 18 8.83901 17.6908 7.34164 17.0725L3.20712 21.2071L1.79291 19.7928L5.46657 16.1192C3.54734 14.9541 1.72515 13.2477 0 11C3.58172 6.33329 7.58172 3.99995 12 3.99995C13.6082 3.99995 15.161 4.30909 16.6584 4.92738L20.7929 0.792847L22.2071 2.20706ZM12 16C14.7614 16 17 13.7614 17 11C17 9.98088 16.6951 9.033 16.1716 8.24257L9.24262 15.1716C10.033 15.6951 10.9809 16 12 16ZM7.8284 13.7574L9.29238 12.2934C9.10495 11.9017 9 11.4631 9 11C9 9.3431 10.3431 7.99995 12 7.99995C12.4632 7.99995 12.9018 8.10491 13.2934 8.29233L14.7574 6.82836C13.967 6.30483 13.0191 5.99995 12 5.99995C9.23858 5.99995 7 8.23853 7 11C7 12.019 7.30488 12.9669 7.8284 13.7574Z" fill="#6A6A6A"/>
</svg>
