<svg width="74" height="68" viewBox="0 0 74 68" fill="none" xmlns="http://www.w3.org/2000/svg">
<path d="M33.5313 0L62.5702 51H4.49234L33.5313 0Z" fill="#E0DAE7"/>
<path fill-rule="evenodd" clip-rule="evenodd" d="M72.1643 46.9587L56.1451 30.7156L59.4522 27.3623L59.6886 27.6019C60.1613 28.0812 60.7521 28.334 61.3688 28.334C61.5728 28.334 61.78 28.3061 61.9856 28.2486C62.8921 28.0041 63.6626 27.2211 63.9038 26.302C64.124 25.4616 63.8909 24.6146 63.2612 23.9778L55.9768 16.5916C54.8501 15.4475 53.3593 15.7643 52.4706 16.6638C51.5851 17.5632 51.2776 19.07 52.4042 20.2141L52.6405 20.4537L44.8835 28.3241L44.6455 28.0828C43.5189 26.9388 42.028 27.254 41.1393 28.1551C40.2523 29.0545 39.9463 30.5613 41.073 31.7054L48.3573 39.0916C48.83 39.5709 49.4209 39.8236 50.0376 39.8236C50.2416 39.8236 50.4488 39.7957 50.6543 39.7383C51.5608 39.4937 52.3314 38.7108 52.5726 37.7916C52.7927 36.9512 52.5596 36.1043 51.9299 35.4674L51.6936 35.2278L55.0007 31.8744L71.0198 48.1175C71.1785 48.2784 71.3857 48.3572 71.5929 48.3572C71.8001 48.3572 72.0073 48.2767 72.1659 48.1175C72.4816 47.7991 72.4816 47.2788 72.1643 46.9587ZM53.615 17.8259C53.7235 17.7175 54.2868 17.2021 54.8323 17.7536L62.1167 25.1399C62.3385 25.3664 62.4113 25.6076 62.3401 25.8801C62.2462 26.2379 61.9208 26.5679 61.5647 26.6663C61.2944 26.7386 61.0548 26.668 60.8314 26.4415L60.022 25.6208L54.3564 19.876L53.547 19.0553C53.0031 18.5021 53.5082 17.9342 53.615 17.8259ZM58.3078 26.2018L53.7866 21.6175L46.028 29.4846L50.5491 34.069L58.3078 26.2018ZM50.2351 38.156C49.9648 38.2282 49.7252 38.156 49.5018 37.9311L42.2174 30.5449C41.6719 29.9918 42.1769 29.4239 42.2838 29.3155C42.3922 29.2072 42.9556 28.6918 43.5011 29.2433L44.3105 30.064L49.9761 35.8088L50.7855 36.6295C51.0072 36.856 51.0801 37.0973 51.0088 37.3698C50.915 37.7276 50.5896 38.0575 50.2351 38.156ZM49.7397 48.5377V49.5094C50.6786 49.8492 51.3585 50.7519 51.3585 51.8205V53.4619C51.3585 53.9149 50.9959 54.2825 50.5491 54.2825H34.3616C33.9148 54.2825 33.5522 53.9149 33.5522 53.4619V51.8205C33.5522 50.7519 34.2305 49.8492 35.171 49.5094V48.5377C35.171 47.1803 36.2604 46.0756 37.5991 46.0756H47.3116C48.6503 46.0756 49.7397 47.1803 49.7397 48.5377ZM37.5991 47.717C37.1523 47.717 36.7897 48.0863 36.7897 48.5377V49.3584H48.121V48.5377C48.121 48.0863 47.7584 47.717 47.3116 47.717H37.5991ZM49.7397 52.6412H35.171V51.8205C35.171 51.3691 35.5336 50.9998 35.9804 50.9998H48.9304C49.3771 50.9998 49.7397 51.3691 49.7397 51.8205V52.6412Z" fill="#3E3832"/>
</svg>
