<svg width="22" height="23" viewBox="0 0 22 23" fill="none" xmlns="http://www.w3.org/2000/svg">
  <path fill-rule="evenodd" clip-rule="evenodd"
    d="M20.8826 17.7784L12.2236 8.99837L14.0112 7.18576L14.139 7.31529C14.3945 7.57437 14.7139 7.711 15.0472 7.711C15.1575 7.711 15.2695 7.69592 15.3806 7.66486C15.8706 7.53267 16.2871 7.10946 16.4175 6.61261C16.5365 6.15834 16.4105 5.70053 16.0701 5.35629L12.1326 1.36374C11.5236 0.745342 10.7177 0.916577 10.2374 1.40278C9.75873 1.88898 9.59248 2.70346 10.2015 3.32186L10.3292 3.4514L6.13623 7.70568L6.00761 7.57525C5.39861 6.95685 4.59273 7.1272 4.11236 7.61429C3.63286 8.10049 3.46748 8.91497 4.07648 9.53337L8.01398 13.5259C8.26948 13.785 8.58886 13.9216 8.92223 13.9216C9.03248 13.9216 9.14448 13.9065 9.2556 13.8755C9.74561 13.7433 10.1621 13.3201 10.2925 12.8232C10.4115 12.369 10.2855 11.9112 9.94511 11.5669L9.81736 11.4374L11.605 9.62476L20.264 18.4048C20.3497 18.4918 20.4617 18.5343 20.5737 18.5343C20.6857 18.5343 20.7977 18.4909 20.8835 18.4048C21.0541 18.2327 21.0541 17.9514 20.8826 17.7784ZM10.856 2.03094C10.9146 1.97238 11.2191 1.69379 11.514 1.9919L15.4515 5.98445C15.5714 6.10688 15.6107 6.23731 15.5722 6.38459C15.5215 6.578 15.3456 6.75634 15.1531 6.80957C15.007 6.84861 14.8775 6.81046 14.7567 6.68802L14.3192 6.24441L11.2567 3.13909L10.8192 2.69548C10.5252 2.39648 10.7982 2.0895 10.856 2.03094ZM13.3926 6.55849L10.9487 4.08045L6.75485 8.33295L9.19873 10.811L13.3926 6.55849ZM9.02898 13.0202C8.88285 13.0592 8.75336 13.0202 8.6326 12.8986L4.69511 8.9061C4.40023 8.6071 4.67323 8.30012 4.73098 8.24156C4.78961 8.18301 5.0941 7.90442 5.38898 8.20253L5.82648 8.64614L8.88898 11.7515L9.32648 12.1951C9.44635 12.3175 9.48573 12.4479 9.44723 12.5952C9.39648 12.7886 9.2206 12.967 9.02898 13.0202ZM8.76123 18.6319V19.1572C9.26873 19.3408 9.63623 19.8288 9.63623 20.4064V21.2936C9.63623 21.5385 9.44023 21.7372 9.19873 21.7372H0.44873C0.20723 21.7372 0.0112305 21.5385 0.0112305 21.2936V20.4064C0.0112305 19.8288 0.377855 19.3408 0.88623 19.1572V18.6319C0.88623 17.8982 1.47511 17.3011 2.19873 17.3011H7.44873C8.17235 17.3011 8.76123 17.8982 8.76123 18.6319ZM2.19873 18.1883C1.95723 18.1883 1.76123 18.3879 1.76123 18.6319V19.0756H7.88623V18.6319C7.88623 18.3879 7.69023 18.1883 7.44873 18.1883H2.19873ZM8.76123 20.85H0.88623V20.4064C0.88623 20.1624 1.08223 19.9628 1.32373 19.9628H8.32373C8.56523 19.9628 8.76123 20.1624 8.76123 20.4064V20.85Z"
    fill="#3E3832"/>
</svg>
