<svg width="64" height="64" viewBox="0 0 64 64" fill="none" xmlns="http://www.w3.org/2000/svg">
  <circle cx="32" cy="32" r="32" fill="#CCD9D7"/>
  <path fill-rule="evenodd" clip-rule="evenodd" d="M20.0728 31.2534C20.0728 32.4884 19.0678 33.4934 17.8328 33.4934C16.5978 33.4934 15.5928 32.4884 15.5928 31.2534C15.5928 30.0184 16.5978 29.0134 17.8328 29.0134C18.2494 29.0134 18.6347 29.1359 18.9707 29.3345L24.6991 24.5588C24.608 24.3169 24.5528 24.06 24.5528 23.7867C24.5528 22.5518 25.5578 21.5467 26.7928 21.5467C28.0128 21.5467 29.0044 22.5294 29.0283 23.7449L33.9951 25.401C34.4073 24.8769 35.0375 24.5334 35.7528 24.5334C36.035 24.5334 36.3053 24.5917 36.5547 24.6887L42.7789 17.4296C42.5893 17.1011 42.4728 16.7248 42.4728 16.3201C42.4728 15.0851 43.4778 14.0801 44.7128 14.0801C45.9478 14.0801 46.9528 15.0851 46.9528 16.3201C46.9528 17.5551 45.9478 18.5601 44.7128 18.5601C44.4276 18.5601 44.1602 18.5018 43.9094 18.4048L37.6866 25.6639C37.8763 25.9924 37.9928 26.3687 37.9928 26.7734C37.9928 28.0084 36.9878 29.0134 35.7528 29.0134C34.5312 29.0134 33.5382 28.0308 33.5173 26.8137L28.5504 25.1591C28.1398 25.6833 27.5081 26.0267 26.7928 26.0267C26.3746 26.0267 25.9909 25.9043 25.6549 25.7057L19.9264 30.4814C20.0175 30.7233 20.0728 30.9801 20.0728 31.2534ZM45.4594 16.3201C45.4594 15.9079 45.1234 15.5734 44.7128 15.5734C44.3006 15.5734 43.9661 15.9079 43.9661 16.3201C43.9661 16.7322 44.3021 17.0667 44.7128 17.0667C45.1234 17.0667 45.4594 16.7322 45.4594 16.3201ZM35.7528 26.0267C36.1634 26.0267 36.4994 26.3613 36.4994 26.7734C36.4994 27.1856 36.1634 27.5201 35.7528 27.5201C35.3421 27.5201 35.0061 27.1856 35.0061 26.7734C35.0061 26.7368 35.0153 26.7035 35.0245 26.6699L35.0245 26.6699C35.0292 26.6528 35.034 26.6357 35.0375 26.6181C35.0437 26.6056 35.0528 26.5964 35.0618 26.5872C35.0723 26.5766 35.0826 26.5661 35.0882 26.5509C35.0967 26.5245 35.0981 26.4986 35.0994 26.4726C35.1002 26.4575 35.101 26.4423 35.1032 26.427C35.2286 26.1925 35.4676 26.0267 35.7528 26.0267ZM27.5394 23.7867C27.5394 23.3746 27.2034 23.0401 26.7928 23.0401C26.3806 23.0401 26.0461 23.3746 26.0461 23.7867C26.0461 24.1989 26.3821 24.5334 26.7928 24.5334C27.2034 24.5334 27.5394 24.1989 27.5394 23.7867ZM17.8328 30.5067C18.2434 30.5067 18.5794 30.8413 18.5794 31.2534C18.5794 31.6656 18.2434 32.0001 17.8328 32.0001C17.4221 32.0001 17.0861 31.6656 17.0861 31.2534C17.0861 30.8413 17.4206 30.5067 17.8328 30.5067ZM47.6994 48.4267H48.4461C48.8583 48.4267 49.1928 48.7612 49.1928 49.1734C49.1928 49.5856 48.8583 49.9201 48.4461 49.9201H46.9528H42.4728H37.9928H33.5128H29.0328H24.5528H20.0728H15.5928H14.0994C13.6873 49.9201 13.3528 49.5856 13.3528 49.1734C13.3528 48.7612 13.6873 48.4267 14.0994 48.4267H14.8461V41.7067C14.8461 41.2946 15.1806 40.9601 15.5928 40.9601H20.0728C20.4849 40.9601 20.8194 41.2946 20.8194 41.7067V48.4267H23.8061V34.2401C23.8061 33.8279 24.1406 33.4934 24.5528 33.4934H29.0328C29.4449 33.4934 29.7794 33.8279 29.7794 34.2401V48.4267H32.7661V37.2267C32.7661 36.8146 33.1006 36.4801 33.5128 36.4801H37.9928C38.4049 36.4801 38.7394 36.8146 38.7394 37.2267V48.4267H41.7261V26.7734C41.7261 26.3613 42.0606 26.0267 42.4728 26.0267H46.9528C47.3649 26.0267 47.6994 26.3613 47.6994 26.7734V48.4267ZM16.3394 42.4534V48.4267H19.3261V42.4534H16.3394ZM25.2994 48.4267V34.9867H28.2861V48.4267H25.2994ZM34.2594 37.9734V48.4267H37.2461V37.9734H34.2594ZM43.2194 48.4267V27.5201H46.2061V48.4267H43.2194Z" fill="#102723"/>
</svg>