<svg width="21" height="21" viewBox="0 0 21 21" fill="none" xmlns="http://www.w3.org/2000/svg">
<path fill-rule="evenodd" clip-rule="evenodd" d="M3.93751 10.0625C3.93751 10.7861 3.34863 11.375 2.62501 11.375C1.90138 11.375 1.31251 10.7861 1.31251 10.0625C1.31251 9.33887 1.90138 8.75 2.62501 8.75C2.86913 8.75 3.09488 8.82175 3.29176 8.93812L6.64826 6.13987C6.59488 5.99812 6.56251 5.84762 6.56251 5.6875C6.56251 4.96387 7.15138 4.375 7.87501 4.375C8.58988 4.375 9.17088 4.95075 9.18488 5.663L12.0951 6.63337C12.3366 6.32625 12.7059 6.125 13.125 6.125C13.2904 6.125 13.4488 6.15912 13.5949 6.216L17.2419 1.96262C17.1308 1.77012 17.0625 1.54962 17.0625 1.3125C17.0625 0.588875 17.6514 0 18.375 0C19.0986 0 19.6875 0.588875 19.6875 1.3125C19.6875 2.03612 19.0986 2.625 18.375 2.625C18.2079 2.625 18.0513 2.59087 17.9043 2.534L14.2581 6.78737C14.3693 6.97987 14.4375 7.20037 14.4375 7.4375C14.4375 8.16112 13.8486 8.75 13.125 8.75C12.4093 8.75 11.8274 8.17425 11.8151 7.46112L8.90488 6.49162C8.66426 6.79875 8.29413 7 7.87501 7C7.63001 7 7.40513 6.92825 7.20826 6.81187L3.85176 9.61012C3.90513 9.75187 3.93751 9.90237 3.93751 10.0625ZM18.8124 1.31248C18.8124 1.07098 18.6155 0.874978 18.3749 0.874978C18.1334 0.874978 17.9374 1.07098 17.9374 1.31248C17.9374 1.55398 18.1343 1.74998 18.3749 1.74998C18.6155 1.74998 18.8124 1.55398 18.8124 1.31248ZM13.125 6.99998C13.3656 6.99998 13.5625 7.19598 13.5625 7.43748C13.5625 7.67898 13.3656 7.87498 13.125 7.87498C12.8843 7.87498 12.6875 7.67898 12.6875 7.43748C12.6875 7.41602 12.6929 7.39649 12.6983 7.37684L12.6983 7.37683L12.6983 7.37682C12.701 7.36683 12.7038 7.3568 12.7058 7.34648C12.7095 7.33918 12.7148 7.33376 12.7201 7.32839C12.7263 7.32218 12.7323 7.31603 12.7356 7.3071C12.7406 7.29162 12.7414 7.27648 12.7421 7.26125V7.26124C12.7426 7.25238 12.7431 7.24349 12.7443 7.23448C12.8178 7.09711 12.9578 6.99998 13.125 6.99998ZM8.31245 5.68752C8.31245 5.44602 8.11557 5.25002 7.87495 5.25002C7.63345 5.25002 7.43745 5.44602 7.43745 5.68752C7.43745 5.92902 7.63432 6.12502 7.87495 6.12502C8.11557 6.12502 8.31245 5.92902 8.31245 5.68752ZM2.62492 9.62499C2.86555 9.62499 3.06242 9.82099 3.06242 10.0625C3.06242 10.304 2.86555 10.5 2.62492 10.5C2.3843 10.5 2.18742 10.304 2.18742 10.0625C2.18742 9.82099 2.38342 9.62499 2.62492 9.62499ZM20.125 20.125H20.5625C20.804 20.125 21 20.321 21 20.5625C21 20.804 20.804 21 20.5625 21H19.6875H17.0625H14.4375H11.8125H9.1875H6.5625H3.9375H1.3125H0.4375C0.196 21 0 20.804 0 20.5625C0 20.321 0.196 20.125 0.4375 20.125H0.875V16.1875C0.875 15.946 1.071 15.75 1.3125 15.75H3.9375C4.179 15.75 4.375 15.946 4.375 16.1875V20.125H6.125V11.8125C6.125 11.571 6.321 11.375 6.5625 11.375H9.1875C9.429 11.375 9.625 11.571 9.625 11.8125V20.125H11.375V13.5625C11.375 13.321 11.571 13.125 11.8125 13.125H14.4375C14.679 13.125 14.875 13.321 14.875 13.5625V20.125H16.625V7.43748C16.625 7.19598 16.821 6.99998 17.0625 6.99998H19.6875C19.929 6.99998 20.125 7.19598 20.125 7.43748V20.125ZM1.74997 16.625V20.125H3.49997V16.625H1.74997ZM6.99991 20.125V12.25H8.74991V20.125H6.99991ZM12.2499 13.9999V20.1249H13.9999V13.9999H12.2499ZM17.5 20.1249V7.87494H19.25V20.1249H17.5Z" fill="#3E3832"/>
</svg>
