<svg width="24" height="24" viewBox="0 0 47 47" fill="none" xmlns="http://www.w3.org/2000/svg">
  <path fill-rule="evenodd" clip-rule="evenodd" d="M21.1565 18.952C19.9469 20.9872 18.4224 22.0202 16.6157 22.0202C14.1715 22.0202 12.0154 20.0848 10.6387 18.4624C7.74144 15.0506 6.49728 5.93631 9.14304 0.930873C9.27936 0.673593 9.52512 0.493113 9.80928 0.435513C10.0934 0.375993 10.3891 0.454713 10.6118 0.644793C12.6239 2.34776 14.9105 3.03513 17.1204 3.69943L17.1206 3.69951L17.1208 3.69956C19.6455 4.45986 22.0301 5.17796 23.8099 7.27647C25.7165 9.52095 26.4576 11.6291 26.0141 13.5453C25.6512 15.1062 24.4627 16.4195 22.5619 17.4909C24.3686 20.6205 25.4899 23.4486 26.1274 25.3667C26.6918 24.2858 27.4886 22.959 28.4928 21.6342C26.953 20.3325 26.592 19.0058 26.5939 18.0726C26.5997 16.5155 27.5578 14.9872 29.2243 13.8755C30.672 12.9098 32.1408 12.5296 33.5597 12.1629L33.5718 12.1597C35.2108 11.7347 36.7625 11.3322 38.4403 10.0662C38.6726 9.89343 38.9741 9.83391 39.2525 9.90303C39.5328 9.97407 39.769 10.168 39.8899 10.433C41.689 14.3421 40.3642 20.9046 38.0582 23.3354C36.6758 24.7926 35.0074 25.6298 33.4848 25.6298C32.3501 25.6298 30.8659 25.167 29.6602 23.2912C27.8485 25.8313 26.8871 28.2733 26.8202 28.4433L26.8201 28.4433L26.8166 28.4522C26.6765 28.8285 26.3155 29.0742 25.9181 29.0742C25.895 29.0742 25.872 29.0723 25.849 29.0704C25.4227 29.0397 25.0714 28.7325 24.9811 28.3158L24.9809 28.3149C24.9588 28.218 24.0106 24.0634 21.1565 18.952ZM30.2938 15.4749C29.1859 16.2141 28.5216 17.1894 28.5178 18.0803C28.5158 18.9174 29.088 19.6278 29.7254 20.1635C30.9542 18.8118 32.4115 17.5581 34.1338 16.696C34.6099 16.4637 35.184 16.6499 35.4221 17.1261C35.6582 17.6003 35.4662 18.1763 34.992 18.4144C33.4214 19.1997 32.0813 20.3805 30.9581 21.6573C31.6301 22.9936 32.471 23.7117 33.4886 23.7117C34.4717 23.7117 35.6621 23.0781 36.6701 22.0163C38.2867 20.3133 39.3235 15.5286 38.5248 12.328C36.9348 13.2751 35.423 13.6673 34.0578 14.0216L34.0435 14.0253L34.0327 14.0281C32.7157 14.3688 31.4675 14.6917 30.2938 15.4749ZM10.3776 2.88351C12.4224 4.29471 14.6054 4.95135 16.5677 5.54079C18.9101 6.24543 20.9338 6.85599 22.3488 8.52063C23.3741 9.72831 24.5184 11.5062 24.1478 13.1152C23.9078 14.152 23.015 15.0717 21.5578 15.8723C19.7952 13.1075 17.5238 10.1987 14.5382 7.51071C14.1427 7.15743 13.5379 7.18815 13.1789 7.58175C12.8256 7.97535 12.8563 8.58207 13.2499 8.93727C16.105 11.5082 18.313 14.3306 20.0026 17.007C19.056 19.048 17.9174 20.1002 16.6157 20.1002C15.3005 20.1002 13.655 19.0499 12.0998 17.2182C9.8688 14.5859 8.76864 7.32831 10.3776 2.88351ZM39.0586 33.1082C41.5987 32.3786 43.5437 33.0064 45.7997 35.2605C46.0166 35.4794 46.1184 35.7885 46.0685 36.0938C46.0186 36.3971 45.8266 36.6602 45.5501 36.7984C41.2666 38.9392 38.041 40.6749 35.447 42.0707C29.9098 45.0544 27.3504 46.4042 24.4301 46.4042C22.032 46.4042 19.3901 45.4921 14.6458 43.8237C13.1962 43.3149 11.5219 42.7274 9.6 42.0765V43.6202C9.6 44.1501 9.16992 44.5802 8.64 44.5802H0.96C0.43008 44.5802 0 44.1501 0 43.6202V28.2602C0 27.7302 0.43008 27.3002 0.96 27.3002H8.64C9.16992 27.3002 9.6 27.7302 9.6 28.2602V29.2202H14.4C18.7642 29.2202 22.0013 31.7162 23.4278 33.0602H28.8C30.6893 33.0602 31.7798 34.1968 32.0045 35.4486L39.0586 33.1082ZM1.92 42.6601H7.68V29.2202H1.92V42.6601ZM34.5336 40.3829C29.7512 42.9554 27.3915 44.2247 24.9522 44.4029C22.5763 44.5764 20.1248 43.7148 15.2856 42.0139L15.2832 42.0131C13.6723 41.4467 11.7946 40.7882 9.6 40.0509V31.1402H14.4C18.3725 31.1402 21.2909 33.6285 22.3603 34.6998C22.5408 34.8784 22.7846 34.9802 23.04 34.9802H28.8C29.785 34.9802 30.1325 35.4986 30.1325 35.9402C30.1325 36.3818 29.785 36.9002 28.8 36.9002H18.24C17.7101 36.9002 17.28 37.3302 17.28 37.8602C17.28 38.3901 17.7101 38.8202 18.24 38.8202H28.8C30.0269 38.8202 30.9043 38.3363 31.44 37.6605L39.625 34.9437C40.8883 34.5827 41.9846 34.6058 43.4266 35.7174C39.8119 37.5427 36.9957 39.0581 34.678 40.3052L34.537 40.3811L34.5336 40.3829Z" fill="#3E3832"/>
</svg>
