<svg width="24" height="23" viewBox="0 0 24 23" fill="none" xmlns="http://www.w3.org/2000/svg">
<path fill-rule="evenodd" clip-rule="evenodd" d="M22.56 12.4402C22.4371 12.4402 22.3143 12.3932 22.2202 12.3L11.52 1.59988L0.819852 12.3C0.632652 12.4872 0.328332 12.4872 0.141132 12.3C-0.0460676 12.1128 -0.0460676 11.8085 0.141132 11.6213L11.1811 0.581318C11.3683 0.394118 11.6727 0.394118 11.8599 0.581318L22.8999 11.6213C23.0871 11.8085 23.0871 12.1128 22.8999 12.3C22.8058 12.3941 22.6829 12.4402 22.56 12.4402ZM19.68 22.5202H13.92C13.6551 22.5202 13.44 22.3052 13.44 22.0402V15.8002H9.60001V22.0402C9.60001 22.3052 9.38497 22.5202 9.12001 22.5202H3.36001C3.09505 22.5202 2.88001 22.3061 2.88001 22.0402V12.4402C2.88001 12.1752 3.09505 11.9602 3.36001 11.9602C3.62497 11.9602 3.84001 12.1752 3.84001 12.4402V21.5602H8.64001V15.3202C8.64001 15.0552 8.85505 14.8402 9.12001 14.8402H13.92C14.185 14.8402 14.4 15.0552 14.4 15.3202V21.5602H19.2V12.9202C19.2 12.6552 19.4151 12.4402 19.68 12.4402C19.945 12.4402 20.16 12.6552 20.16 12.9202V22.0402C20.16 22.3061 19.945 22.5202 19.68 22.5202ZM18.24 5.2402C18.24 5.50612 18.4551 5.7202 18.72 5.7202C18.985 5.7202 19.2 5.50612 19.2 5.2402V1.8802C19.2 1.61524 18.985 1.4002 18.72 1.4002H15.36C15.0951 1.4002 14.88 1.61524 14.88 1.8802C14.88 2.14516 15.0951 2.3602 15.36 2.3602H18.24V5.2402Z" fill="#3E3832"/>
</svg>
