<svg width="40" height="37" viewBox="0 0 40 37" fill="none" xmlns="http://www.w3.org/2000/svg">
<path d="M0 0H38C39.1046 0 40 0.89543 40 2V34C40 35.6569 38.6569 37 37 37H0V0Z" fill="#102723"/>
<path fill-rule="evenodd" clip-rule="evenodd" d="M17 6.5C21.9706 6.5 26 10.5294 26 15.5C26 17.6211 25.2662 19.5709 24.0386 21.1093L32 29.0714L30.5714 30.5L22.6093 22.5386C21.0709 23.7662 19.1211 24.5 17 24.5C12.0294 24.5 8 20.4706 8 15.5C8 10.5294 12.0294 6.5 17 6.5ZM17 8.5C13.134 8.5 10 11.634 10 15.5C10 19.366 13.134 22.5 17 22.5C20.866 22.5 24 19.366 24 15.5C24 11.634 20.866 8.5 17 8.5Z" fill="white"/>
</svg>
