<svg width="16" height="16" viewBox="0 0 16 16" fill="none" xmlns="http://www.w3.org/2000/svg">
<path fill-rule="evenodd" clip-rule="evenodd" d="M8 0C3.58817 0 0 3.58817 0 7.99998C0 12.4118 3.58817 16 8 16C12.4111 16 16 12.4118 16 7.99998C16 3.58817 12.4111 0 8 0Z" fill="#102723"/>
<path fill-rule="evenodd" clip-rule="evenodd" d="M9.04368 4.37679C9.04368 3.80079 8.57516 3.33331 8.0002 3.33331C7.42316 3.33331 6.95673 3.80079 6.95673 4.37679C6.95673 4.95383 7.42316 5.42027 8.0002 5.42027C8.57516 5.42027 9.04368 4.95383 9.04368 4.37679ZM10.6796 12.0003C10.6796 11.6268 10.3598 11.3394 9.98395 11.3394H8.7186V7.33532C8.7186 6.96187 8.3988 6.67445 8.02294 6.67445H6.67008C6.29368 6.67445 5.97443 6.96177 5.97443 7.33532C5.97443 7.70887 6.29368 7.99619 6.67008 7.99619H7.32729V11.3394H6.26108C5.88468 11.3394 5.56543 11.6267 5.56543 12.0003C5.56543 12.3738 5.88468 12.6612 6.26108 12.6612H9.98395C10.3598 12.6612 10.6796 12.3737 10.6796 12.0003Z" fill="white"/>
</svg>
