<svg width="24" height="24" viewBox="0 0 24 24" fill="none" xmlns="http://www.w3.org/2000/svg">
<path fill-rule="evenodd" clip-rule="evenodd" d="M12 0C5.38226 0 0 5.38226 0 12C0 18.6177 5.38226 24 12 24C18.6167 24 24 18.6177 24 12C24 5.38226 18.6167 0 12 0Z" fill="#102723"/>
<path fill-rule="evenodd" clip-rule="evenodd" d="M13.5652 6.56522C13.5652 5.70122 12.8624 5 12 5C11.1344 5 10.4348 5.70122 10.4348 6.56522C10.4348 7.43078 11.1344 8.13043 12 8.13043C12.8624 8.13043 13.5652 7.43078 13.5652 6.56522ZM16.0191 18.0005C16.0191 17.4403 15.5394 17.0092 14.9756 17.0092H13.0776V11.003C13.0776 10.4428 12.5979 10.0117 12.0341 10.0117H10.0048C9.44021 10.0117 8.96134 10.4427 8.96134 11.003C8.96134 11.5633 9.44021 11.9943 10.0048 11.9943H10.9906V17.0092H9.39132C8.82671 17.0092 8.34784 17.4402 8.34784 18.0005C8.34784 18.5608 8.82671 18.9918 9.39132 18.9918H14.9756C15.5394 18.9918 16.0191 18.5607 16.0191 18.0005Z" fill="white"/>
</svg>
