<svg width="53" height="59" viewBox="0 0 53 59" fill="none" xmlns="http://www.w3.org/2000/svg">
<path d="M4 0H42.998L51 8V57H4V0Z" fill="#E7E9E9"/>
<path fill-rule="evenodd" clip-rule="evenodd" d="M49.968 7V56.173H7.783H7.121C5.499 56.173 4.183 54.858 4.183 53.235C4.183 51.613 5.499 50.298 7.121 50.298H45.205V0H5.671C2.539 0 0 2.539 0 5.672V51.41C0 56.526 3.884 59 9 59H53V7H49.968Z" fill="#BA3A26"/>
<path fill-rule="evenodd" clip-rule="evenodd" d="M17.243 14H30.757H32V15.5049C32 17.7636 31.5553 22.37 30.757 24.3088C29.3944 27.6273 26.9969 30.3449 23.9987 32C21.0031 30.3449 18.6056 27.6273 17.243 24.3088C16.4447 22.37 16 17.7636 16 15.5049V14H17.243ZM36 37H12V41H36V37Z" fill="#FFD399"/>
</svg>
