<svg width="149" height="44" viewBox="0 0 149 44" fill="none" xmlns="http://www.w3.org/2000/svg">
<path d="M53.296 29V17.3H60.856V19.892H56.392V21.728H60.208V24.32H56.392V26.408H61.036V29H53.296ZM66.209 29.216C65.621 29.216 65.117 29.132 64.697 28.964C64.289 28.784 63.947 28.532 63.671 28.208C63.407 27.884 63.209 27.5 63.077 27.056C62.957 26.6 62.897 26.096 62.897 25.544V22.412H61.709V20.108L63.077 20L63.437 17.66H65.993V20H68.045V22.412H65.993V25.49C65.993 25.994 66.101 26.342 66.317 26.534C66.533 26.714 66.785 26.804 67.073 26.804C67.217 26.804 67.355 26.792 67.487 26.768C67.631 26.732 67.757 26.696 67.865 26.66L68.333 28.892C68.093 28.964 67.805 29.036 67.469 29.108C67.133 29.18 66.713 29.216 66.209 29.216ZM73.0645 29.216C72.4765 29.216 71.9725 29.132 71.5525 28.964C71.1445 28.784 70.8025 28.532 70.5265 28.208C70.2625 27.884 70.0645 27.5 69.9325 27.056C69.8125 26.6 69.7525 26.096 69.7525 25.544V22.412H68.5645V20.108L69.9325 20L70.2925 17.66H72.8485V20H74.9005V22.412H72.8485V25.49C72.8485 25.994 72.9565 26.342 73.1725 26.534C73.3885 26.714 73.6405 26.804 73.9285 26.804C74.0725 26.804 74.2105 26.792 74.3425 26.768C74.4865 26.732 74.6125 26.696 74.7205 26.66L75.1885 28.892C74.9485 28.964 74.6605 29.036 74.3245 29.108C73.9885 29.18 73.5685 29.216 73.0645 29.216ZM80.388 29.216C79.728 29.216 79.116 29.114 78.552 28.91C77.988 28.694 77.496 28.388 77.076 27.992C76.668 27.584 76.344 27.086 76.104 26.498C75.864 25.91 75.744 25.244 75.744 24.5C75.744 23.768 75.864 23.114 76.104 22.538C76.356 21.95 76.68 21.452 77.076 21.044C77.484 20.636 77.946 20.324 78.462 20.108C78.978 19.892 79.512 19.784 80.064 19.784C80.724 19.784 81.3 19.898 81.792 20.126C82.284 20.354 82.692 20.666 83.016 21.062C83.34 21.458 83.58 21.92 83.736 22.448C83.904 22.976 83.988 23.54 83.988 24.14C83.988 24.416 83.97 24.674 83.934 24.914C83.91 25.154 83.886 25.328 83.862 25.436H78.732C78.876 25.976 79.134 26.354 79.506 26.57C79.878 26.774 80.316 26.876 80.82 26.876C81.132 26.876 81.432 26.834 81.72 26.75C82.02 26.654 82.332 26.516 82.656 26.336L83.664 28.172C83.172 28.52 82.626 28.784 82.026 28.964C81.438 29.132 80.892 29.216 80.388 29.216ZM78.696 23.42H81.36C81.36 23.072 81.27 22.772 81.09 22.52C80.922 22.256 80.604 22.124 80.136 22.124C79.788 22.124 79.482 22.226 79.218 22.43C78.966 22.634 78.792 22.964 78.696 23.42ZM85.6866 29V20H88.2066L88.4226 21.548H88.4946C88.8306 20.936 89.2266 20.492 89.6826 20.216C90.1506 19.928 90.6066 19.784 91.0506 19.784C91.3266 19.784 91.5486 19.802 91.7166 19.838C91.8846 19.862 92.0346 19.904 92.1666 19.964L91.6626 22.628C91.4946 22.592 91.3326 22.562 91.1766 22.538C91.0326 22.502 90.8586 22.484 90.6546 22.484C90.3306 22.484 89.9886 22.598 89.6286 22.826C89.2806 23.042 88.9986 23.432 88.7826 23.996V29H85.6866ZM95.982 29.216C95.454 29.216 95.01 29.138 94.65 28.982C94.302 28.814 94.02 28.58 93.804 28.28C93.588 27.98 93.432 27.626 93.336 27.218C93.252 26.798 93.21 26.336 93.21 25.832V16.472H96.306V25.94C96.306 26.252 96.36 26.462 96.468 26.57C96.588 26.678 96.702 26.732 96.81 26.732C96.87 26.732 96.918 26.732 96.954 26.732C97.002 26.732 97.062 26.72 97.134 26.696L97.494 28.964C97.326 29.036 97.116 29.096 96.864 29.144C96.624 29.192 96.33 29.216 95.982 29.216ZM102.747 29.216C102.087 29.216 101.475 29.114 100.911 28.91C100.347 28.694 99.8553 28.388 99.4353 27.992C99.0273 27.584 98.7033 27.086 98.4633 26.498C98.2233 25.91 98.1033 25.244 98.1033 24.5C98.1033 23.768 98.2233 23.114 98.4633 22.538C98.7153 21.95 99.0393 21.452 99.4353 21.044C99.8433 20.636 100.305 20.324 100.821 20.108C101.337 19.892 101.871 19.784 102.423 19.784C103.083 19.784 103.659 19.898 104.151 20.126C104.643 20.354 105.051 20.666 105.375 21.062C105.699 21.458 105.939 21.92 106.095 22.448C106.263 22.976 106.347 23.54 106.347 24.14C106.347 24.416 106.329 24.674 106.293 24.914C106.269 25.154 106.245 25.328 106.221 25.436H101.091C101.235 25.976 101.493 26.354 101.865 26.57C102.237 26.774 102.675 26.876 103.179 26.876C103.491 26.876 103.791 26.834 104.079 26.75C104.379 26.654 104.691 26.516 105.015 26.336L106.023 28.172C105.531 28.52 104.985 28.784 104.385 28.964C103.797 29.132 103.251 29.216 102.747 29.216ZM101.055 23.42H103.719C103.719 23.072 103.629 22.772 103.449 22.52C103.281 22.256 102.963 22.124 102.495 22.124C102.147 22.124 101.841 22.226 101.577 22.43C101.325 22.634 101.151 22.964 101.055 23.42ZM109.994 29L107.042 20H110.138L111.11 23.924C111.326 24.824 111.542 25.76 111.758 26.732H111.83C112.046 25.76 112.262 24.824 112.478 23.924L113.45 20H116.402L113.558 29H109.994ZM121.661 29.216C121.001 29.216 120.389 29.114 119.825 28.91C119.261 28.694 118.769 28.388 118.349 27.992C117.941 27.584 117.617 27.086 117.377 26.498C117.137 25.91 117.017 25.244 117.017 24.5C117.017 23.768 117.137 23.114 117.377 22.538C117.629 21.95 117.953 21.452 118.349 21.044C118.757 20.636 119.219 20.324 119.735 20.108C120.251 19.892 120.785 19.784 121.337 19.784C121.997 19.784 122.573 19.898 123.065 20.126C123.557 20.354 123.965 20.666 124.289 21.062C124.613 21.458 124.853 21.92 125.009 22.448C125.177 22.976 125.261 23.54 125.261 24.14C125.261 24.416 125.243 24.674 125.207 24.914C125.183 25.154 125.159 25.328 125.135 25.436H120.005C120.149 25.976 120.407 26.354 120.779 26.57C121.151 26.774 121.589 26.876 122.093 26.876C122.405 26.876 122.705 26.834 122.993 26.75C123.293 26.654 123.605 26.516 123.929 26.336L124.937 28.172C124.445 28.52 123.899 28.784 123.299 28.964C122.711 29.132 122.165 29.216 121.661 29.216ZM119.969 23.42H122.633C122.633 23.072 122.543 22.772 122.363 22.52C122.195 22.256 121.877 22.124 121.409 22.124C121.061 22.124 120.755 22.226 120.491 22.43C120.239 22.634 120.065 22.964 119.969 23.42ZM129.732 29.216C129.204 29.216 128.76 29.138 128.4 28.982C128.052 28.814 127.77 28.58 127.554 28.28C127.338 27.98 127.182 27.626 127.086 27.218C127.002 26.798 126.96 26.336 126.96 25.832V16.472H130.056V25.94C130.056 26.252 130.11 26.462 130.218 26.57C130.338 26.678 130.452 26.732 130.56 26.732C130.62 26.732 130.668 26.732 130.704 26.732C130.752 26.732 130.812 26.72 130.884 26.696L131.244 28.964C131.076 29.036 130.866 29.096 130.614 29.144C130.374 29.192 130.08 29.216 129.732 29.216ZM135.093 29.216C134.517 29.216 133.905 29.102 133.257 28.874C132.621 28.646 132.069 28.34 131.601 27.956L132.969 26.048C133.785 26.648 134.517 26.948 135.165 26.948C135.489 26.948 135.717 26.906 135.849 26.822C135.993 26.726 136.065 26.588 136.065 26.408C136.065 26.288 136.017 26.186 135.921 26.102C135.825 26.006 135.693 25.922 135.525 25.85C135.369 25.766 135.189 25.688 134.985 25.616C134.781 25.544 134.565 25.46 134.337 25.364C134.073 25.256 133.803 25.13 133.527 24.986C133.263 24.83 133.023 24.644 132.807 24.428C132.591 24.212 132.411 23.966 132.267 23.69C132.135 23.402 132.069 23.072 132.069 22.7C132.069 22.256 132.153 21.854 132.321 21.494C132.501 21.134 132.747 20.828 133.059 20.576C133.371 20.324 133.743 20.132 134.175 20C134.619 19.856 135.105 19.784 135.633 19.784C136.377 19.784 137.013 19.91 137.541 20.162C138.081 20.402 138.549 20.672 138.945 20.972L137.577 22.808C137.253 22.568 136.935 22.382 136.623 22.25C136.311 22.118 136.017 22.052 135.741 22.052C135.213 22.052 134.949 22.22 134.949 22.556C134.949 22.676 134.991 22.778 135.075 22.862C135.171 22.946 135.297 23.024 135.453 23.096C135.609 23.168 135.789 23.24 135.993 23.312C136.197 23.372 136.413 23.444 136.641 23.528C136.905 23.624 137.175 23.744 137.451 23.888C137.727 24.032 137.973 24.212 138.189 24.428C138.417 24.632 138.597 24.884 138.729 25.184C138.873 25.472 138.945 25.82 138.945 26.228C138.945 26.648 138.861 27.044 138.693 27.416C138.525 27.776 138.279 28.094 137.955 28.37C137.631 28.634 137.229 28.844 136.749 29C136.269 29.144 135.717 29.216 135.093 29.216ZM144.636 29.216C143.976 29.216 143.364 29.114 142.8 28.91C142.236 28.694 141.744 28.388 141.324 27.992C140.916 27.584 140.592 27.086 140.352 26.498C140.112 25.91 139.992 25.244 139.992 24.5C139.992 23.768 140.112 23.114 140.352 22.538C140.604 21.95 140.928 21.452 141.324 21.044C141.732 20.636 142.194 20.324 142.71 20.108C143.226 19.892 143.76 19.784 144.312 19.784C144.972 19.784 145.548 19.898 146.04 20.126C146.532 20.354 146.94 20.666 147.264 21.062C147.588 21.458 147.828 21.92 147.984 22.448C148.152 22.976 148.236 23.54 148.236 24.14C148.236 24.416 148.218 24.674 148.182 24.914C148.158 25.154 148.134 25.328 148.11 25.436H142.98C143.124 25.976 143.382 26.354 143.754 26.57C144.126 26.774 144.564 26.876 145.068 26.876C145.38 26.876 145.68 26.834 145.968 26.75C146.268 26.654 146.58 26.516 146.904 26.336L147.912 28.172C147.42 28.52 146.874 28.784 146.274 28.964C145.686 29.132 145.14 29.216 144.636 29.216ZM142.944 23.42H145.608C145.608 23.072 145.518 22.772 145.338 22.52C145.17 22.256 144.852 22.124 144.384 22.124C144.036 22.124 143.73 22.226 143.466 22.43C143.214 22.634 143.04 22.964 142.944 23.42Z" fill="#102723"/>
<rect width="44" height="44" rx="22" fill="#102723"/>
<path fill-rule="evenodd" clip-rule="evenodd" d="M38.7425 18.1733H35.1806C35.1806 18.1733 34.9351 18.1733 34.8483 18.3779L32.8771 24.0727L30.9076 18.3779C30.8208 18.1733 30.5738 18.1733 30.5738 18.1733H23.7253C23.577 18.1733 23.4527 18.2902 23.4527 18.4292V20.3631C23.4527 18.829 21.723 18.1733 20.7101 18.1733C18.442 18.1733 16.9236 19.5832 16.4509 21.7266C16.4253 20.3047 16.3 19.7952 15.8942 19.2734C15.7077 19.0177 15.4383 18.8028 15.1448 18.6251C14.5407 18.2911 13.9982 18.1733 12.8323 18.1733H11.4634C11.4634 18.1733 11.216 18.1733 11.1287 18.3779L9.88316 21.291V18.4292C9.88316 18.2902 9.75981 18.1733 9.61179 18.1733H6.44416C6.44416 18.1733 6.1996 18.1733 6.11065 18.3779L4.81574 21.407C4.81574 21.407 4.68647 21.7098 4.98203 21.7098H6.1996V27.4818C6.1996 27.6251 6.31915 27.7386 6.47167 27.7386H9.61179C9.75981 27.7386 9.88316 27.6251 9.88316 27.4818V21.7098H11.1071C11.8095 21.7098 11.9582 21.728 12.2315 21.8482C12.3961 21.9068 12.5444 22.0255 12.6252 22.1623C12.7908 22.4564 12.8323 22.8097 12.8323 23.8513V27.4818C12.8323 27.6251 12.9543 27.7386 13.1049 27.7386H16.1145C16.1145 27.7386 16.4547 27.7386 16.5892 27.4216L17.2562 25.8658C18.1431 27.0381 19.6029 27.7386 21.417 27.7386H21.8134C21.8134 27.7386 22.1557 27.7386 22.2911 27.4216L23.4527 24.7066V27.4818C23.4527 27.6251 23.577 27.7386 23.7253 27.7386H26.7975C26.7975 27.7386 27.1365 27.7386 27.2727 27.4216C27.2727 27.4216 28.5014 24.5425 28.5061 24.5208H28.508C28.5552 24.2813 28.2345 24.2813 28.2345 24.2813H27.1379V19.3412L30.5881 27.4216C30.7228 27.7386 31.0625 27.7386 31.0625 27.7386H34.692C34.692 27.7386 35.0335 27.7386 35.1683 27.4216L38.9932 18.4832C39.1256 18.1733 38.7425 18.1733 38.7425 18.1733ZM23.4527 24.2813H21.389C20.5676 24.2813 19.8994 23.6536 19.8994 22.8775C19.8994 22.1027 20.5676 21.471 21.389 21.471H21.9661C22.7855 21.471 23.4527 22.1027 23.4527 22.8775V24.2813Z" fill="white"/>
</svg>
