<svg width="64" height="64" viewBox="0 0 64 64" fill="none" xmlns="http://www.w3.org/2000/svg">
  <path fill-rule="evenodd" clip-rule="evenodd"
    d="M63.9307 43.6587C63.8933 43.5227 63.8213 43.3361 63.8187 43.3281L54.4853 27.3281C54.2453 26.9201 53.808 26.6667 53.3333 26.6667H10.6667C10.192 26.6667 9.75467 26.9201 9.51467 27.3281L0.181333 43.3281C0.176 43.3361 0.106667 43.5201 0.0693333 43.6587C0.032 43.8027 0 43.9921 0 44.0001V62.6667C0 63.4027 0.597333 64.0001 1.33333 64.0001H62.6667C63.4027 64.0001 64 63.4027 64 62.6667V44.0001C64 43.9921 63.968 43.8027 63.9307 43.6587ZM44 42.6667C43.6453 42.6667 43.3067 42.8081 43.056 43.0561C42.8053 43.3067 42.6667 43.6481 42.6667 44.0001V46.6667C42.6667 48.8721 40.872 50.6667 38.6667 50.6667H26.6667C24.4613 50.6667 22.6667 48.8721 22.6667 46.6667V44.0001C22.6667 43.2641 22.0693 42.6667 21.3333 42.6667H3.656L11.4347 29.3334H52.5707L60.3493 42.6667H44Z"
    fill="#102723"/>

  <line x1="24" x2="14" y1="21" y2="12" stroke="#102723" stroke-width="2"/>
  <line x1="40" x2="50" y1="21" y2="12" stroke="#102723" stroke-width="2"/>
  <line x1="31.5" x2="31.5" y1="21" y2="7" stroke="#102723" stroke-width="2"/>
</svg>
