<svg width="1728" height="1204" viewBox="0 0 1728 1204" fill="none" xmlns="http://www.w3.org/2000/svg">
<rect x="1884.21" y="836.125" width="285.244" height="285.244" rx="2" transform="rotate(135 1884.21 836.125)" fill="#A18DBB"/>
<path fill-rule="evenodd" clip-rule="evenodd" d="M1590.32 795.165C1591.1 794.384 1591.1 793.118 1590.32 792.337L1558.12 760.134L1606.53 711.727L1638.73 743.929C1639.51 744.71 1640.78 744.71 1641.56 743.929L1679.07 706.418C1679.85 705.637 1679.85 704.371 1679.07 703.59L1646.86 671.387L1681.76 636.496C1682.54 635.714 1682.54 634.448 1681.76 633.667L1516.5 468.414C1515.72 467.633 1514.46 467.633 1513.67 468.414L1314.81 667.283C1314.02 668.064 1314.02 669.331 1314.81 670.112L1480.06 835.365C1480.84 836.146 1482.11 836.146 1482.89 835.365L1517.78 800.473L1549.98 832.676C1550.76 833.457 1552.03 833.457 1552.81 832.676L1590.32 795.165Z" fill="#FFE6E6"/>
<path fill-rule="evenodd" clip-rule="evenodd" d="M1552.02 837.539C1552.8 836.758 1554.06 836.758 1554.84 837.539L1592.36 875.05C1593.14 875.831 1593.14 877.098 1592.36 877.879L1560.15 910.08L1608.56 958.488L1640.76 926.286C1641.54 925.505 1642.81 925.505 1643.59 926.286L1681.1 963.797C1681.88 964.578 1681.88 965.845 1681.1 966.626L1648.9 998.827L1683.79 1033.72C1684.57 1034.5 1684.57 1035.77 1683.79 1036.55L1518.54 1201.8C1517.76 1202.58 1516.49 1202.58 1515.71 1201.8L1316.84 1002.93C1316.06 1002.15 1316.06 1000.88 1316.84 1000.1L1482.09 834.849C1482.88 834.068 1484.14 834.068 1484.92 834.849L1519.81 869.741L1552.02 837.539Z" fill="#CCF1D6"/>
<rect x="-107.976" y="367.396" width="285.244" height="285.244" rx="2" transform="rotate(-45 -107.976 367.396)" fill="#A18DBB"/>
<path fill-rule="evenodd" clip-rule="evenodd" d="M184.76 410.545C183.979 411.326 183.979 412.592 184.76 413.373L216.963 445.576L168.556 493.983L136.353 461.781C135.572 461 134.306 461 133.525 461.781L96.0137 499.292C95.2326 500.073 95.2326 501.339 96.0137 502.12L128.216 534.323L93.3247 569.214C92.5436 569.995 92.5436 571.262 93.3247 572.043L258.578 737.296C259.359 738.077 260.625 738.077 261.406 737.296L460.276 538.426C461.057 537.645 461.057 536.379 460.276 535.598L295.022 370.345C294.241 369.564 292.975 369.564 292.194 370.345L257.303 405.236L225.1 373.034C224.319 372.253 223.052 372.253 222.271 373.034L184.76 410.545Z" fill="#FFE6E6"/>
<path fill-rule="evenodd" clip-rule="evenodd" d="M224.222 365.981C223.441 366.762 222.175 366.762 221.394 365.981L183.883 328.47C183.102 327.689 183.102 326.423 183.883 325.642L216.084 293.44L167.677 245.033L135.475 277.234C134.694 278.015 133.428 278.015 132.647 277.234L95.1357 239.723C94.3547 238.942 94.3547 237.676 95.1357 236.895L127.337 204.693L92.4456 169.802C91.6646 169.021 91.6646 167.754 92.4456 166.973L257.699 1.72012C258.48 0.939062 259.746 0.939062 260.527 1.72012L459.396 200.59C460.178 201.371 460.178 202.637 459.396 203.418L294.143 368.671C293.362 369.452 292.096 369.452 291.315 368.671L256.424 333.78L224.222 365.981Z" fill="#CCF1D6"/>
</svg>
