<svg width="32" height="32" viewBox="0 0 32 32" fill="none" xmlns="http://www.w3.org/2000/svg">
<path fill-rule="evenodd" clip-rule="evenodd" d="M28.6667 0H3.33333C2.96533 0 2.66667 0.298667 2.66667 0.666667V31.3333C2.66667 31.7013 2.96533 32 3.33333 32H28.6667C29.0347 32 29.3333 31.7013 29.3333 31.3333V0.666667C29.3333 0.298667 29.0347 0 28.6667 0ZM28 30.6667H4V1.33333H7.33333V2.66667H6.66667V5.33333H9.33333V2.66667H8.66667V1.33333H12.6667V2.66667H12V5.33333H14.6667V2.66667H14V1.33333H18V2.66667H17.3333V5.33333H20V2.66667H19.3333V1.33333H23.3333V2.66667H22.6667V5.33333H25.3333V2.66667H24.6667V1.33333H28V30.6667ZM8.66667 9.33333H23.3333C23.7013 9.33333 24 9.632 24 10C24 10.368 23.7013 10.6667 23.3333 10.6667H8.66667C8.29867 10.6667 8 10.368 8 10C8 9.632 8.29867 9.33333 8.66667 9.33333ZM23.3333 13.3333H8.66667C8.29867 13.3333 8 13.632 8 14C8 14.368 8.29867 14.6667 8.66667 14.6667H23.3333C23.7013 14.6667 24 14.368 24 14C24 13.632 23.7013 13.3333 23.3333 13.3333ZM8.66667 17.3333H23.3333C23.7013 17.3333 24 17.632 24 18C24 18.368 23.7013 18.6667 23.3333 18.6667H8.66667C8.29867 18.6667 8 18.368 8 18C8 17.632 8.29867 17.3333 8.66667 17.3333ZM23.3333 21.3333H8.66667C8.29867 21.3333 8 21.632 8 22C8 22.368 8.29867 22.6667 8.66667 22.6667H23.3333C23.7013 22.6667 24 22.368 24 22C24 21.632 23.7013 21.3333 23.3333 21.3333ZM8.66667 25.3333H23.3333C23.7013 25.3333 24 25.632 24 26C24 26.368 23.7013 26.6667 23.3333 26.6667H8.66667C8.29867 26.6667 8 26.368 8 26C8 25.632 8.29867 25.3333 8.66667 25.3333Z" fill="#0B483F"/>
</svg>
