<svg width="31" height="31" viewBox="0 0 31 31" fill="none" xmlns="http://www.w3.org/2000/svg">
  <path fill-rule="evenodd" clip-rule="evenodd" d="M21.5 7H2.5C2.224 7 2 7.224 2 7.5V30.5C2 30.776 2.224 31 2.5 31H21.5C21.776 31 22 30.776 22 30.5V7.5C22 7.224 21.776 7 21.5 7ZM21 30H3V8H5.5V9H5V11H7V9H6.5V8H9.5V9H9V11H11V9H10.5V8H13.5V9H13V11H15V9H14.5V8H17.5V9H17V11H19V9H18.5V8H21V30ZM6.5 14H17.5C17.776 14 18 14.224 18 14.5C18 14.776 17.776 15 17.5 15H6.5C6.224 15 6 14.776 6 14.5C6 14.224 6.224 14 6.5 14ZM17.5 17H6.5C6.224 17 6 17.224 6 17.5C6 17.776 6.224 18 6.5 18H17.5C17.776 18 18 17.776 18 17.5C18 17.224 17.776 17 17.5 17ZM6.5 20H17.5C17.776 20 18 20.224 18 20.5C18 20.776 17.776 21 17.5 21H6.5C6.224 21 6 20.776 6 20.5C6 20.224 6.224 20 6.5 20ZM17.5 23H6.5C6.224 23 6 23.224 6 23.5C6 23.776 6.224 24 6.5 24H17.5C17.776 24 18 23.776 18 23.5C18 23.224 17.776 23 17.5 23ZM6.5 26H17.5C17.776 26 18 26.224 18 26.5C18 26.776 17.776 27 17.5 27H6.5C6.224 27 6 26.776 6 26.5C6 26.224 6.224 26 6.5 26Z" fill="#102723"/>
  <g filter="url(#filter0_d_1841_31506)">
    <circle cx="22" cy="7" r="7" fill="#FFA631"/>
    <path fill-rule="evenodd" clip-rule="evenodd" d="M19.3333 3C18.597 3 18 3.59695 18 4.33333V11L20.3333 9.33333H24.6667C25.403 9.33333 26 8.73638 26 8V4.33333C26 3.59695 25.403 3 24.6667 3H19.3333ZM24.6667 3.66667C25.0181 3.66667 25.3061 3.93863 25.3315 4.28358L25.3333 8C25.3333 8.35145 25.0116 8.64122 24.6667 8.66667H20L18.6667 9.66667V4.33333C18.6667 3.98188 18.9386 3.69394 19.2836 3.6685L24.6667 3.66667ZM20.3333 6C20.1492 6 20 6.14924 20 6.33333C20 6.51743 20.1492 6.66667 20.3333 6.66667C20.5174 6.66667 20.6667 6.51743 20.6667 6.33333C20.6667 6.14924 20.5174 6 20.3333 6ZM22 6C21.8159 6 21.6667 6.14924 21.6667 6.33333C21.6667 6.51743 21.8159 6.66667 22 6.66667C22.1841 6.66667 22.3333 6.51743 22.3333 6.33333C22.3333 6.14924 22.1841 6 22 6ZM23.6667 6C23.4826 6 23.3333 6.14924 23.3333 6.33333C23.3333 6.51743 23.4826 6.66667 23.6667 6.66667C23.8508 6.66667 24 6.51743 24 6.33333C24 6.14924 23.8508 6 23.6667 6Z" fill="#102723"/>
  </g>
  <defs>
    <filter id="filter0_d_1841_31506" x="13" y="0" width="18" height="18" filterUnits="userSpaceOnUse" color-interpolation-filters="sRGB">
      <feFlood flood-opacity="0" result="BackgroundImageFix"/>
      <feColorMatrix in="SourceAlpha" type="matrix" values="0 0 0 0 0 0 0 0 0 0 0 0 0 0 0 0 0 0 127 0" result="hardAlpha"/>
      <feOffset dy="2"/>
      <feGaussianBlur stdDeviation="1"/>
      <feColorMatrix type="matrix" values="0 0 0 0 0 0 0 0 0 0 0 0 0 0 0 0 0 0 0.25 0"/>
      <feBlend mode="normal" in2="BackgroundImageFix" result="effect1_dropShadow_1841_31506"/>
      <feBlend mode="normal" in="SourceGraphic" in2="effect1_dropShadow_1841_31506" result="shape"/>
    </filter>
  </defs>
</svg>
