<svg width="20" height="20" viewBox="0 0 20 20" fill="none" xmlns="http://www.w3.org/2000/svg">
<path fill-rule="evenodd" clip-rule="evenodd" d="M17.4675 5.25667C17.4467 5.20583 17.4158 5.16 17.3775 5.12167L12.3783 0.1225C12.34 0.0841667 12.2942 0.0533333 12.2433 0.0325C12.1933 0.0116667 12.1392 0 12.0833 0H2.91667C2.68667 0 2.5 0.186667 2.5 0.416667V19.5833C2.5 19.8133 2.68667 20 2.91667 20H17.0833C17.3133 20 17.5 19.8133 17.5 19.5833V5.41667C17.5 5.36083 17.4883 5.30667 17.4675 5.25667ZM12.5 1.4225L16.0775 5H12.5V1.4225ZM3.33333 19.1667V0.833333H11.6667V5.41667C11.6667 5.64667 11.8533 5.83333 12.0833 5.83333H16.6667V19.1667H3.33333Z" fill="#3E3832"/>
</svg>
