<svg width="64" height="64" viewBox="0 0 64 64" fill="none" xmlns="http://www.w3.org/2000/svg">
  <circle cx="32" cy="32" r="32" fill="#CCD9D7"/>
  <path fill-rule="evenodd" clip-rule="evenodd" d="M41.2267 32.7463H42.72V21.5463C42.72 21.4478 42.6991 21.3492 42.6618 21.2596C42.6245 21.167 42.5677 21.0864 42.5005 21.0177L35.0368 13.554C34.9681 13.4853 34.886 13.4301 34.7949 13.3927C34.7038 13.3539 34.6053 13.333 34.5067 13.333H18.08C17.6679 13.333 17.3334 13.6675 17.3334 14.0797V45.4397C17.3334 45.8518 17.6679 46.1863 18.08 46.1863H31.52V44.693H18.8267V14.8263H33.76V21.5463C33.76 21.9585 34.0945 22.293 34.5067 22.293H41.2267V32.7463ZM35.2534 15.8821L40.1709 20.7997H35.2534V15.8821ZM52.9553 35.2044L49.222 31.471C48.9413 31.1903 48.4455 31.1903 48.1662 31.471L36.9647 42.674C36.8796 42.7591 36.8259 42.8622 36.7915 42.9682C36.7907 42.9709 36.7895 42.9734 36.7879 42.9758C36.7865 42.9781 36.7849 42.9802 36.7833 42.9824C36.7799 42.9869 36.7766 42.9914 36.7751 42.9966L35.2817 48.2232C35.2071 48.4846 35.2788 48.7653 35.4714 48.9565C35.6133 49.0983 35.8044 49.1745 36 49.1745C36.0687 49.1745 36.1374 49.1655 36.2061 49.1446L41.4328 47.6513C41.438 47.6498 41.4425 47.6464 41.447 47.6431C41.4515 47.6397 41.4559 47.6364 41.4612 47.6349C41.5672 47.6005 41.6717 47.5453 41.7553 47.4616L52.9568 36.2587C53.248 35.969 53.248 35.4971 52.9553 35.2044ZM41.2267 45.8802L38.5492 43.2027L45.7082 36.0421L48.3857 38.7197L41.2267 45.8802ZM39.8021 46.5671L37.8622 44.6273L37.0872 47.3437L39.8021 46.5671ZM49.4415 37.6639L46.764 34.9863L48.6949 33.0555L51.3724 35.733L49.4415 37.6639Z" fill="#102723"/>
</svg>
  