<svg width="64" height="64" viewBox="0 0 64 64" fill="none" xmlns="http://www.w3.org/2000/svg">
  <circle cx="32" cy="32" r="32" fill="#CCD9D7"/>
  <path fill-rule="evenodd" clip-rule="evenodd" d="M44.7128 14.0801C44.5899 14.0801 44.4717 14.0964 44.3531 14.1128C44.3074 14.1191 44.2616 14.1255 44.2155 14.1309C44.1364 14.1025 44.0542 14.0801 43.9661 14.0801H26.0461C23.164 14.0801 20.8194 16.4246 20.8194 19.3067V39.4667H18.5794C15.6973 39.4667 13.3528 41.8113 13.3528 44.6934C13.3528 47.5755 15.6973 49.9201 18.5794 49.9201H36.4994C39.3816 49.9201 41.7261 47.5755 41.7261 44.6934V20.0534H48.4461C48.8583 20.0534 49.1928 19.7189 49.1928 19.3067C49.1928 16.229 47.35 14.0801 44.7128 14.0801ZM18.5794 48.4267C16.5216 48.4267 14.8461 46.7527 14.8461 44.6934C14.8461 42.6341 16.5216 40.9601 18.5794 40.9601H32.8453C31.8761 41.9098 31.2728 43.2314 31.2728 44.6934C31.2728 46.1554 31.8746 47.477 32.8453 48.4267H18.5794ZM36.4995 48.4267C38.5573 48.4267 40.2328 46.7527 40.2328 44.6934V18.5601C40.2328 17.4087 40.6823 16.3679 41.3976 15.5734H26.0461C23.9883 15.5734 22.3128 17.2489 22.3128 19.3067V39.4667H36.4995C36.9116 39.4667 37.2461 39.8013 37.2461 40.2134C37.2461 40.6256 36.9116 40.9601 36.4995 40.9601C34.4416 40.9601 32.7661 42.6341 32.7661 44.6934C32.7661 46.7527 34.4416 48.4267 36.4995 48.4267ZM41.7261 18.5601C41.7261 16.9129 43.0656 15.5734 44.7128 15.5734C46.2927 15.5734 47.4127 16.7457 47.6517 18.5601H41.7261ZM35.0061 21.5467H26.7928C26.3806 21.5467 26.0461 21.8813 26.0461 22.2934C26.0461 22.7056 26.3791 23.0401 26.7928 23.0401H35.0061C35.4183 23.0401 35.7528 22.7056 35.7528 22.2934C35.7528 21.8813 35.4183 21.5467 35.0061 21.5467ZM35.0061 26.0267H26.7928C26.3806 26.0267 26.0461 26.3613 26.0461 26.7734C26.0461 27.1856 26.3791 27.5201 26.7928 27.5201H35.0061C35.4183 27.5201 35.7528 27.1856 35.7528 26.7734C35.7528 26.3613 35.4183 26.0267 35.0061 26.0267ZM26.7928 30.5067H35.0061C35.4183 30.5067 35.7528 30.8413 35.7528 31.2534C35.7528 31.6656 35.4183 32.0001 35.0061 32.0001H26.7928C26.3806 32.0001 26.0461 31.6656 26.0461 31.2534C26.0461 30.8413 26.3806 30.5067 26.7928 30.5067ZM35.0061 34.9867H26.7928C26.3806 34.9867 26.0461 35.3213 26.0461 35.7334C26.0461 36.1456 26.3806 36.4801 26.7928 36.4801H35.0061C35.4183 36.4801 35.7528 36.1456 35.7528 35.7334C35.7528 35.3213 35.4183 34.9867 35.0061 34.9867Z" fill="#102723"/>
</svg>
  