<svg width="24" height="24" viewBox="0 0 24 24" fill="none" xmlns="http://www.w3.org/2000/svg">
<path fill-rule="evenodd" clip-rule="evenodd" d="M19.9413 0.501019L19.9413 0.50102L19.9413 0.501021C19.9119 0.505083 19.8824 0.509149 19.8528 0.51262C19.8019 0.49438 19.7491 0.47998 19.6925 0.47998H8.17248C6.31968 0.47998 4.81248 1.98718 4.81248 3.83998V16.8H3.37248C1.51968 16.8 0.0124817 18.3072 0.0124817 20.16C0.0124817 22.0128 1.51968 23.52 3.37248 23.52H14.8925C16.7453 23.52 18.2525 22.0128 18.2525 20.16V4.31998H22.5725C22.8374 4.31998 23.0525 4.10494 23.0525 3.83998C23.0525 1.86142 21.8678 0.47998 20.1725 0.47998C20.0935 0.47998 20.0175 0.490483 19.9413 0.501019ZM3.37248 22.56C2.0496 22.56 0.972482 21.4838 0.972482 20.16C0.972482 18.8361 2.0496 17.76 3.37248 17.76H12.5434C11.9203 18.3705 11.5325 19.2201 11.5325 20.16C11.5325 21.0998 11.9194 21.9494 12.5434 22.56H3.37248ZM14.8925 22.56C16.2154 22.56 17.2925 21.4838 17.2925 20.16V3.35998C17.2925 2.61982 17.5814 1.9507 18.0413 1.43998H8.17248C6.8496 1.43998 5.77248 2.5171 5.77248 3.83998V16.8H14.8925C15.1574 16.8 15.3725 17.015 15.3725 17.28C15.3725 17.5449 15.1574 17.76 14.8925 17.76C13.5696 17.76 12.4925 18.8361 12.4925 20.16C12.4925 21.4838 13.5696 22.56 14.8925 22.56ZM18.2525 3.35998C18.2525 2.3011 19.1136 1.43998 20.1725 1.43998C21.1882 1.43998 21.9082 2.19358 22.0618 3.35998H18.2525ZM13.9325 5.27998H8.65248C8.38752 5.27998 8.17248 5.49502 8.17248 5.75998C8.17248 6.02494 8.38656 6.23998 8.65248 6.23998H13.9325C14.1974 6.23998 14.4125 6.02494 14.4125 5.75998C14.4125 5.49502 14.1974 5.27998 13.9325 5.27998ZM13.9325 8.15998H8.65248C8.38752 8.15998 8.17248 8.37502 8.17248 8.63998C8.17248 8.90494 8.38656 9.11998 8.65248 9.11998H13.9325C14.1974 9.11998 14.4125 8.90494 14.4125 8.63998C14.4125 8.37502 14.1974 8.15998 13.9325 8.15998ZM8.65248 11.04H13.9325C14.1974 11.04 14.4125 11.255 14.4125 11.52C14.4125 11.7849 14.1974 12 13.9325 12H8.65248C8.38752 12 8.17248 11.7849 8.17248 11.52C8.17248 11.255 8.38752 11.04 8.65248 11.04ZM13.9325 13.92H8.65248C8.38752 13.92 8.17248 14.135 8.17248 14.4C8.17248 14.6649 8.38752 14.88 8.65248 14.88H13.9325C14.1974 14.88 14.4125 14.6649 14.4125 14.4C14.4125 14.135 14.1974 13.92 13.9325 13.92Z" fill="#3E3832"/>
</svg>
