<?xml version="1.0" encoding="UTF-8"?>
<svg width="3.75" height="58px" viewBox="0 0 60 58" version="1.1" xmlns="http://www.w3.org/2000/svg">
    <title>Color/01-edition/pencil-fill Copy</title>
    <g id="Nye-skisser" stroke="none" stroke-width="1" fill="none" fill-rule="evenodd">
        <g id="Hover" transform="translate(-1130.000000, -345.000000)">
            <g id="Group-26-Copy" transform="translate(1130.500000, 345.000000)">
                <path d="M2.10714286,31.4073276 L56.8928571,31.4073276 C58.0566,31.4073276 59,32.3988464 59,33.6219468 L59,55.7681394 C59,56.9912398 58.0566,57.9827586 56.8928571,57.9827586 L2.10714286,57.9827586 C0.943399991,57.9827586 0,56.9912398 0,55.7681394 L0,33.6219468 C0,32.3988464 0.943399991,31.4073276 2.10714286,31.4073276 Z" id="Rectangle" fill="#99BDCD"></path>
                <polygon id="Rectangle" fill="#A13A28" points="19.6666667 28.9240097 49.0981152 1.06431339e-12 59 9.73116269 29.5685515 38.6551724"></polygon>
                <polygon id="Triangle" fill="#FFD7A3" points="14.75 43.487069 19.6057792 28.9913793 29.5 38.7150101"></polygon>
                <polygon id="Triangle-Copy-2" fill="#323F42" points="14.75 43.487069 16.3685931 38.6551724 19.6666667 41.8963827"></polygon>
                <polygon id="Rectangle" fill="#C86151" points="49.1363169 1.06967787e-12 59 9.69361963 54.1136831 14.4956897 44.25 4.80207003"></polygon>
            </g>
        </g>
    </g>
</svg>
