<svg width="24" height="24" viewBox="0 0 24 24" fill="none" xmlns="http://www.w3.org/2000/svg">
<path fill-rule="evenodd" clip-rule="evenodd" d="M12 0C5.383 0 0 5.383 0 12C0 18.617 5.383 24 12 24C18.616 24 24 18.617 24 12C24 5.383 18.616 0 12 0ZM12 19C11.447 19 11 18.553 11 18C11 17.448 11.447 17 12 17C12.551 17 13 17.448 13 18C13 18.553 12.551 19 12 19ZM12.5 15.5V12.965C14.193 12.721 15.5 11.26 15.5 9.5C15.5 7.57 13.93 6 12 6C10.069 6 8.5 7.57 8.5 9.5C8.5 9.776 8.724 10 9 10C9.275 10 9.5 9.776 9.5 9.5C9.5 8.121 10.621 7 12 7C13.378 7 14.5 8.121 14.5 9.5C14.5 10.879 13.378 12 12 12C11.724 12 11.5 12.224 11.5 12.5V15.5C11.5 15.776 11.724 16 12 16C12.275 16 12.5 15.776 12.5 15.5Z" fill="#102723"/>
</svg>
