<svg width="24" height="24" viewBox="0 0 24 24" fill="none" xmlns="http://www.w3.org/2000/svg">
<path fill-rule="evenodd" clip-rule="evenodd" d="M0 12C0 18.6167 5.3833 24 12 24C18.6167 24 24 18.6167 24 12C24 5.3833 18.6167 0 12 0C5.3833 0 0 5.3833 0 12ZM1.04348 12C1.04348 5.95826 5.95826 1.04348 12 1.04348C18.0417 1.04348 22.9565 5.95826 22.9565 12C22.9565 18.0417 18.0417 22.9565 12 22.9565C5.95826 22.9565 1.04348 18.0417 1.04348 12ZM12 16.1739C11.712 16.1739 11.4783 15.9402 11.4783 15.6522V12.5217C11.4783 12.2337 11.712 12 12 12C13.4379 12 14.6087 10.8292 14.6087 9.3913C14.6087 7.95339 13.4379 6.78261 12 6.78261C10.5621 6.78261 9.3913 7.95339 9.3913 9.3913C9.3913 9.6793 9.15757 9.91304 8.86957 9.91304C8.58156 9.91304 8.34783 9.6793 8.34783 9.3913C8.34783 7.37739 9.98609 5.73913 12 5.73913C14.0139 5.73913 15.6522 7.37739 15.6522 9.3913C15.6522 11.2278 14.2894 12.7523 12.5217 13.007V15.6522C12.5217 15.9402 12.288 16.1739 12 16.1739ZM13.0435 18.2609C13.0435 18.8372 12.5763 19.3043 12 19.3043C11.4237 19.3043 10.9565 18.8372 10.9565 18.2609C10.9565 17.6846 11.4237 17.2174 12 17.2174C12.5763 17.2174 13.0435 17.6846 13.0435 18.2609Z" fill="#102723"/>
</svg>
