<svg width="24" height="27" viewBox="0 0 24 27" fill="none" xmlns="http://www.w3.org/2000/svg">
  <path fill-rule="evenodd" clip-rule="evenodd" d="M0 13.7149C0 20.7944 5.3833 26.5542 12 26.5542C18.6167 26.5542 24 20.7944 24 13.7149C24 6.63543 18.6167 0.87561 12 0.87561C5.3833 0.87561 0 6.63543 0 13.7149ZM1.04349 13.7149C1.04349 7.2506 5.95827 1.99207 12 1.99207C18.0418 1.99207 22.9565 7.2506 22.9565 13.7149C22.9565 20.1792 18.0418 25.4377 12 25.4377C5.95827 25.4377 1.04349 20.1792 1.04349 13.7149ZM12 18.1807C11.712 18.1807 11.4783 17.9306 11.4783 17.6225V14.2731C11.4783 13.965 11.712 13.7149 12 13.7149C13.4379 13.7149 14.6087 12.4622 14.6087 10.9238C14.6087 9.38529 13.4379 8.13263 12 8.13263C10.5621 8.13263 9.39132 9.38529 9.39132 10.9238C9.39132 11.2319 9.15758 11.482 8.86958 11.482C8.58158 11.482 8.34784 11.2319 8.34784 10.9238C8.34784 8.76901 9.9861 7.01617 12 7.01617C14.0139 7.01617 15.6522 8.76901 15.6522 10.9238C15.6522 12.8887 14.2894 14.5199 12.5218 14.7923V17.6225C12.5218 17.9306 12.288 18.1807 12 18.1807ZM13.0435 20.4137C13.0435 21.0303 12.5763 21.5302 12 21.5302C11.4237 21.5302 10.9565 21.0303 10.9565 20.4137C10.9565 19.7971 11.4237 19.2972 12 19.2972C12.5763 19.2972 13.0435 19.7971 13.0435 20.4137Z" fill="#102723" />
</svg>
