<svg width="102" height="102" viewBox="20 16 60 60" fill="none" xmlns="http://www.w3.org/2000/svg">
<path fill-rule="evenodd" clip-rule="evenodd" d="M68.4034 50.1098C69.7758 49.7884 68.7906 48.0482 67.5171 47.1063C67.2757 46.9282 66.0859 46.1458 65.3217 46.3826C64.5586 46.6198 64.6373 47.2251 64.6625 47.3256C64.9616 48.5363 66.9023 50.4621 68.4034 50.1098" fill="#262626"/>
<path fill-rule="evenodd" clip-rule="evenodd" d="M49.3211 50.11C50.8222 50.4622 52.7629 48.5364 53.062 47.3257C53.0871 47.2252 53.1659 46.6199 52.4028 46.3827C51.6386 46.1459 50.4488 46.9283 50.2073 47.1064C48.9339 48.0483 47.9486 49.7885 49.3211 50.11" fill="#262626"/>
<path d="M54.0783 64.0352C54.1013 63.9956 54.1628 63.9072 54.2657 63.7861C54.4452 63.5746 54.6724 63.361 54.9503 63.1604C55.7943 62.551 56.9046 62.1949 58.3284 62.2279C59.7184 62.2597 60.8269 62.6113 61.6889 63.1736C62.0002 63.3767 62.2554 63.5927 62.4579 63.8064C62.5737 63.9286 62.6433 64.0178 62.6697 64.058C62.821 64.289 63.1309 64.3536 63.3619 64.2023C63.5929 64.051 63.6575 63.7411 63.5062 63.5101C63.302 63.1984 62.8891 62.7627 62.2353 62.3361C61.2192 61.6732 59.9299 61.2643 58.3514 61.2282C56.7064 61.1901 55.3832 61.6144 54.3649 62.3496C53.7686 62.7801 53.3961 63.2189 53.2136 63.5329C53.0749 63.7717 53.156 64.0777 53.3948 64.2164C53.6335 64.3551 53.9396 64.274 54.0783 64.0352Z" fill="#262626"/>
<path d="M59.0108 53.1466C59.8359 53.0054 60.398 53.0939 60.5997 53.3693C61.3606 54.4098 61.1172 55.5107 59.8117 56.4144C59.1253 56.8894 58.1806 57.0566 57.6804 56.8103C57.4358 56.6898 57.1498 56.8128 57.0416 57.085C56.9333 57.3571 57.0438 57.6753 57.2884 57.7958C58.1151 58.2028 59.3863 57.9779 60.3233 57.3295C62.0974 56.1014 62.5034 54.265 61.3507 52.6888C60.8629 52.0227 60.0005 51.8869 58.8636 52.0814C58.5993 52.1266 58.4179 52.4017 58.4586 52.6959C58.4992 52.99 58.7465 53.1918 59.0108 53.1466Z" fill="#262626"/>
<path fill-rule="evenodd" clip-rule="evenodd" d="M70.125 73H30.75C27.0285 73 24 69.9715 24 66.25V29.125C24 28.504 24.504 28 25.125 28H40.875C41.496 28 42 28.504 42 29.125V32.5H70.125C70.746 32.5 71.25 33.004 71.25 33.625V37H76.875C77.496 37 78 37.504 78 38.125V65.125C78 69.4675 74.4675 73 70.125 73ZM35.7765 70.75H70.125C73.2255 70.75 75.75 68.2277 75.75 65.125V39.25H37.5V66.25C37.5 67.978 36.8475 69.5552 35.7765 70.75ZM26.25 30.25V66.25C26.25 68.7318 28.2682 70.75 30.75 70.75C33.2317 70.75 35.25 68.7318 35.25 66.25V38.125C35.25 37.504 35.754 37 36.375 37H69V34.75H40.875C40.254 34.75 39.75 34.246 39.75 33.625V30.25H26.25Z" fill="#102723"/>
<path d="M41 29.5H25.5V63.5C25.5 67 27 70.5 29.5 70.5C32 70.5 36 68.5 36 66.5V37.5H69.5V33.5H41V29.5Z" fill="#102723" stroke="#102723"/>
</svg>
