<svg width="100" height="100" viewBox="23 20 54 54" fill="none" xmlns="http://www.w3.org/2000/svg">
<path fill-rule="evenodd" clip-rule="evenodd" d="M74.9167 36.3334H69.5V33.0834C69.5 32.4854 69.0147 32.0001 68.4167 32.0001H41.3333V28.7501C41.3333 28.1521 40.848 27.6667 40.25 27.6667H25.0833C24.4853 27.6667 24 28.1521 24 28.7501V64.5001C24 68.0837 26.9163 71.0001 30.5 71.0001H68.4167C72.5983 71.0001 76 67.5984 76 63.4167V37.4167C76 36.8187 75.5147 36.3334 74.9167 36.3334ZM67.3333 36.3334H35.9167C35.3187 36.3334 34.8333 36.8187 34.8333 37.4167V64.5001C34.8333 66.8899 32.8898 68.8334 30.5 68.8334C28.1102 68.8334 26.1667 66.8899 26.1667 64.5001V29.8334H39.1667V33.0834C39.1667 33.6814 39.652 34.1667 40.25 34.1667H67.3333V36.3334Z" fill="#F6EAE6"/>
<path fill-rule="evenodd" clip-rule="evenodd" d="M68.4034 48.1098C69.7758 47.7884 68.7906 46.0482 67.5171 45.1063C67.2757 44.9282 66.0859 44.1458 65.3217 44.3826C64.5586 44.6198 64.6373 45.2251 64.6625 45.3256C64.9616 46.5363 66.9023 48.4621 68.4034 48.1098Z" fill="#102723"/>
<path fill-rule="evenodd" clip-rule="evenodd" d="M49.3211 48.11C50.8222 48.4622 52.7629 46.5364 53.062 45.3257C53.0871 45.2252 53.1659 44.6199 52.4028 44.3827C51.6386 44.1459 50.4488 44.9283 50.2073 45.1064C48.9339 46.0483 47.9486 47.7885 49.3211 48.11Z" fill="#102723"/>
<path d="M54.0783 62.0352C54.1013 61.9956 54.1628 61.9072 54.2657 61.7861C54.4452 61.5746 54.6724 61.361 54.9503 61.1604C55.7943 60.551 56.9046 60.1949 58.3284 60.2279C59.7184 60.2597 60.8269 60.6113 61.6889 61.1736C62.0002 61.3767 62.2554 61.5927 62.4579 61.8064C62.5737 61.9286 62.6433 62.0178 62.6697 62.058C62.821 62.289 63.1309 62.3536 63.3619 62.2023C63.5929 62.051 63.6575 61.7411 63.5062 61.5101C63.302 61.1984 62.8891 60.7627 62.2353 60.3361C61.2192 59.6732 59.9299 59.2643 58.3514 59.2282C56.7064 59.1901 55.3832 59.6144 54.3649 60.3496C53.7686 60.7801 53.3961 61.2189 53.2136 61.5329C53.0749 61.7717 53.156 62.0777 53.3948 62.2164C53.6335 62.3551 53.9396 62.274 54.0783 62.0352Z" fill="#102723"/>
<path d="M59.0108 51.1466C59.8359 51.0054 60.398 51.0939 60.5997 51.3693C61.3606 52.4098 61.1172 53.5107 59.8117 54.4144C59.1253 54.8894 58.1806 55.0566 57.6804 54.8103C57.4358 54.6898 57.1498 54.8128 57.0416 55.085C56.9333 55.3571 57.0438 55.6753 57.2884 55.7958C58.1151 56.2028 59.3863 55.9779 60.3233 55.3295C62.0974 54.1014 62.5034 52.265 61.3507 50.6888C60.8629 50.0227 60.0005 49.8869 58.8636 50.0814C58.5993 50.1266 58.4179 50.4017 58.4586 50.6959C58.4992 50.99 58.7465 51.1918 59.0108 51.1466Z" fill="#102723"/>
</svg>
