<svg width="20" height="20" viewBox="0 0 20 20" fill="#102723" xmlns="http://www.w3.org/2000/svg">
<path fill-rule="evenodd" clip-rule="evenodd" d="M2.5 2.4987C2.03976 2.4987 1.66667 2.87179 1.66667 3.33203V15.832C1.66667 16.2923 2.03976 16.6654 2.5 16.6654H17.5C17.9602 16.6654 18.3333 16.2923 18.3333 15.832V5.83203C18.3333 5.37179 17.9602 4.9987 17.5 4.9987H12.5V3.33203H17.5C18.8807 3.33203 20 4.45132 20 5.83203V15.832C20 17.2127 18.8807 18.332 17.5 18.332H2.5C1.11929 18.332 0 17.2127 0 15.832V3.33203C0 1.95132 1.11929 0.832031 2.5 0.832031H8.33333C9.71405 0.832031 10.8333 1.95132 10.8333 3.33203V4.16536V4.9987V11.7245L12.9462 9.61165L14.1247 10.7902L9.99993 14.9149L5.87514 10.7902L7.05365 9.61165L9.16667 11.7247L9.16667 4.9987L9.16667 4.16536L9.16667 3.33203C9.16667 2.87179 8.79357 2.4987 8.33333 2.4987H2.5Z" fill="#102723"/>
</svg>
