<svg width="54" height="73" viewBox="0 0 54 73" fill="none" xmlns="http://www.w3.org/2000/svg">
<path fill-rule="evenodd" clip-rule="evenodd" d="M0 0H50L54 24H4L0 0Z" fill="white"/>
<path fill-rule="evenodd" clip-rule="evenodd" d="M0 49H50L54 73H4L0 49Z" fill="white"/>
<path fill-rule="evenodd" clip-rule="evenodd" d="M54 24H4L0 49H50L54 24Z" fill="#E7E9E9"/>
<path fill-rule="evenodd" clip-rule="evenodd" d="M15 17C17.7614 17 20 14.7614 20 12C20 9.23858 17.7614 7 15 7C12.2386 7 10 9.23858 10 12C10 14.7614 12.2386 17 15 17Z" fill="#117938"/>
<path fill-rule="evenodd" clip-rule="evenodd" d="M25 41C27.7614 41 30 38.7614 30 36C30 33.2386 27.7614 31 25 31C22.2386 31 20 33.2386 20 36C20 38.7614 22.2386 41 25 41Z" fill="#06893A"/>
<path fill-rule="evenodd" clip-rule="evenodd" d="M25 17C26.1046 17 27 16.1046 27 15C27 13.8954 26.1046 13 25 13C23.8954 13 23 13.8954 23 15C23 16.1046 23.8954 17 25 17Z" fill="#6AB889"/>
<path fill-rule="evenodd" clip-rule="evenodd" d="M33 21C34.1046 21 35 20.1046 35 19C35 17.8954 34.1046 17 33 17C31.8954 17 31 17.8954 31 19C31 20.1046 31.8954 21 33 21Z" fill="#6AB889"/>
<path fill-rule="evenodd" clip-rule="evenodd" d="M32 30C33.1046 30 34 29.1046 34 28C34 26.8954 33.1046 26 32 26C30.8954 26 30 26.8954 30 28C30 29.1046 30.8954 30 32 30Z" fill="#6AB889"/>
<path fill-rule="evenodd" clip-rule="evenodd" d="M16 47C17.1046 47 18 46.1046 18 45C18 43.8954 17.1046 43 16 43C14.8954 43 14 43.8954 14 45C14 46.1046 14.8954 47 16 47Z" fill="#78706A"/>
<path fill-rule="evenodd" clip-rule="evenodd" d="M13 57C14.1046 57 15 56.1046 15 55C15 53.8954 14.1046 53 13 53C11.8954 53 11 53.8954 11 55C11 56.1046 11.8954 57 13 57Z" fill="#78706A"/>
<path fill-rule="evenodd" clip-rule="evenodd" d="M22 64C23.1046 64 24 63.1046 24 62C24 60.8954 23.1046 60 22 60C20.8954 60 20 60.8954 20 62C20 63.1046 20.8954 64 22 64Z" fill="#78706A"/>
<path fill-rule="evenodd" clip-rule="evenodd" d="M35.6066 60.7782L38.0815 58.3033C38.8626 57.5223 40.1289 57.5223 40.9099 58.3033C41.691 59.0843 41.691 60.3507 40.9099 61.1317L38.4351 63.6066L40.9099 66.0815C41.691 66.8625 41.691 68.1289 40.9099 68.9099C40.1289 69.691 38.8626 69.691 38.0815 68.9099L35.6066 66.435L33.1318 68.9099C32.3507 69.691 31.0844 69.691 30.3033 68.9099C29.5223 68.1289 29.5223 66.8625 30.3033 66.0815L32.7782 63.6066L30.3033 61.1317C29.5223 60.3507 29.5223 59.0843 30.3033 58.3033C31.0844 57.5223 32.3507 57.5223 33.1318 58.3033L35.6066 60.7782Z" fill="#78706A"/>
</svg>
