<svg width="24" height="24" viewBox="0 0 24 24" fill="none" xmlns="http://www.w3.org/2000/svg">
<path d="M12.2046 -0.00390625L11.9907 -0.00181966C8.77675 0.0545184 5.75167 1.35342 3.47372 3.65598C1.17909 5.97523 -0.0532772 9.01122 0.00202788 12.2058C0.116812 18.8172 5.29775 23.9961 11.7966 23.9961L12.0084 23.994C18.7348 23.8782 24.114 18.4009 23.9982 11.7874C23.8834 5.17606 18.7024 -0.00390625 12.2046 -0.00390625Z" fill="#FFA631"/>
<path fill-rule="evenodd" clip-rule="evenodd" d="M13 5.79982C13 5.24753 12.5523 4.7998 12 4.7998C11.4477 4.7998 11 5.24753 11 5.79982V12.7999C11 13.3522 11.4477 13.7999 12 13.7999C12.5523 13.7999 13 13.3522 13 12.7999V5.79982ZM12.0002 18.8007H12.0272C12.8536 18.7857 13.5151 18.1032 13.5001 17.2753C13.4851 16.4563 12.8176 15.8008 12.0002 15.8008C11.9957 15.8008 11.9912 15.8012 11.9867 15.8016C11.9822 15.802 11.9777 15.8023 11.9732 15.8023C11.1452 15.8158 10.4853 16.4998 10.5003 17.3278C10.5137 18.1467 11.1827 18.8007 12.0002 18.8007Z" fill="#262626"/>
</svg>
