<svg width="126" height="126" viewBox="0 0 126 126" fill="none" xmlns="http://www.w3.org/2000/svg">
<g filter="url(#filter0_ddd)">
<circle cx="63" cy="62" r="60" fill="#CCD9D7"/>
<path d="M26.672 83V73.496H23.45V71.264H32.558V73.496H29.336V83H26.672ZM34.172 83V74.072H36.818V83H34.172ZM35.486 72.758C35.042 72.758 34.676 72.632 34.388 72.38C34.1 72.116 33.956 71.78 33.956 71.372C33.956 70.964 34.1 70.634 34.388 70.382C34.676 70.13 35.042 70.004 35.486 70.004C35.942 70.004 36.308 70.13 36.584 70.382C36.872 70.634 37.016 70.964 37.016 71.372C37.016 71.78 36.872 72.116 36.584 72.38C36.308 72.632 35.942 72.758 35.486 72.758ZM41.5766 83.216C41.1206 83.216 40.7366 83.144 40.4246 83C40.1126 82.856 39.8606 82.658 39.6686 82.406C39.4886 82.142 39.3566 81.83 39.2726 81.47C39.1886 81.098 39.1466 80.684 39.1466 80.228V70.382H41.7926V80.336C41.7926 80.612 41.8406 80.804 41.9366 80.912C42.0446 81.02 42.1526 81.074 42.2606 81.074C42.3206 81.074 42.3686 81.074 42.4046 81.074C42.4526 81.074 42.5126 81.062 42.5846 81.038L42.9086 83C42.7646 83.06 42.5786 83.108 42.3506 83.144C42.1346 83.192 41.8766 83.216 41.5766 83.216ZM51.3385 83.216C50.7865 83.216 50.3125 83.132 49.9165 82.964C49.5325 82.796 49.2145 82.562 48.9625 82.262C48.7225 81.962 48.5425 81.602 48.4225 81.182C48.3145 80.75 48.2605 80.276 48.2605 79.76V76.142H47.0365V74.18L48.4045 74.072L48.7105 71.696H50.9065V74.072H53.0485V76.142H50.9065V79.724C50.9065 80.228 51.0085 80.594 51.2125 80.822C51.4285 81.038 51.7105 81.146 52.0585 81.146C52.2025 81.146 52.3465 81.128 52.4905 81.092C52.6465 81.056 52.7845 81.014 52.9045 80.966L53.3185 82.892C53.0785 82.964 52.7965 83.036 52.4725 83.108C52.1485 83.18 51.7705 83.216 51.3385 83.216ZM58.3087 83.216C57.7447 83.216 57.1987 83.114 56.6707 82.91C56.1427 82.694 55.6747 82.388 55.2667 81.992C54.8707 81.596 54.5527 81.11 54.3127 80.534C54.0727 79.946 53.9527 79.28 53.9527 78.536C53.9527 77.792 54.0727 77.132 54.3127 76.556C54.5527 75.968 54.8707 75.476 55.2667 75.08C55.6747 74.684 56.1427 74.384 56.6707 74.18C57.1987 73.964 57.7447 73.856 58.3087 73.856C58.8727 73.856 59.4127 73.964 59.9287 74.18C60.4567 74.384 60.9187 74.684 61.3147 75.08C61.7227 75.476 62.0467 75.968 62.2867 76.556C62.5267 77.132 62.6467 77.792 62.6467 78.536C62.6467 79.28 62.5267 79.946 62.2867 80.534C62.0467 81.11 61.7227 81.596 61.3147 81.992C60.9187 82.388 60.4567 82.694 59.9287 82.91C59.4127 83.114 58.8727 83.216 58.3087 83.216ZM58.3087 81.074C58.8487 81.074 59.2567 80.846 59.5327 80.39C59.8087 79.934 59.9467 79.316 59.9467 78.536C59.9467 77.756 59.8087 77.138 59.5327 76.682C59.2567 76.226 58.8487 75.998 58.3087 75.998C57.7567 75.998 57.3427 76.226 57.0667 76.682C56.8027 77.138 56.6707 77.756 56.6707 78.536C56.6707 79.316 56.8027 79.934 57.0667 80.39C57.3427 80.846 57.7567 81.074 58.3087 81.074ZM64.4591 86.312V74.072H66.6191L66.7991 74.954H66.8711C67.2191 74.642 67.6091 74.384 68.0411 74.18C68.4851 73.964 68.9411 73.856 69.4091 73.856C69.9491 73.856 70.4351 73.964 70.8671 74.18C71.2991 74.396 71.6651 74.702 71.9651 75.098C72.2651 75.494 72.4931 75.974 72.6491 76.538C72.8171 77.09 72.9011 77.708 72.9011 78.392C72.9011 79.16 72.7931 79.844 72.5771 80.444C72.3731 81.032 72.0911 81.536 71.7311 81.956C71.3831 82.364 70.9811 82.676 70.5251 82.892C70.0811 83.108 69.6191 83.216 69.1391 83.216C68.7551 83.216 68.3831 83.138 68.0231 82.982C67.6631 82.814 67.3271 82.58 67.0151 82.28L67.1051 83.702V86.312H64.4591ZM68.5271 81.056C68.9831 81.056 69.3731 80.852 69.6971 80.444C70.0211 80.024 70.1831 79.352 70.1831 78.428C70.1831 76.82 69.6671 76.016 68.6351 76.016C68.1191 76.016 67.6091 76.286 67.1051 76.826V80.48C67.3451 80.696 67.5851 80.846 67.8251 80.93C68.0651 81.014 68.2991 81.056 68.5271 81.056ZM74.7774 86.312V74.072H76.9374L77.1174 74.954H77.1894C77.5374 74.642 77.9274 74.384 78.3594 74.18C78.8034 73.964 79.2594 73.856 79.7274 73.856C80.2674 73.856 80.7534 73.964 81.1854 74.18C81.6174 74.396 81.9834 74.702 82.2834 75.098C82.5834 75.494 82.8114 75.974 82.9674 76.538C83.1354 77.09 83.2194 77.708 83.2194 78.392C83.2194 79.16 83.1114 79.844 82.8954 80.444C82.6914 81.032 82.4094 81.536 82.0494 81.956C81.7014 82.364 81.2994 82.676 80.8434 82.892C80.3994 83.108 79.9374 83.216 79.4574 83.216C79.0734 83.216 78.7014 83.138 78.3414 82.982C77.9814 82.814 77.6454 82.58 77.3334 82.28L77.4234 83.702V86.312H74.7774ZM78.8454 81.056C79.3014 81.056 79.6914 80.852 80.0154 80.444C80.3394 80.024 80.5014 79.352 80.5014 78.428C80.5014 76.82 79.9854 76.016 78.9534 76.016C78.4374 76.016 77.9274 76.286 77.4234 76.826V80.48C77.6634 80.696 77.9034 80.846 78.1434 80.93C78.3834 81.014 78.6174 81.056 78.8454 81.056ZM89.0918 83.216C88.4558 83.216 87.8618 83.114 87.3098 82.91C86.7578 82.694 86.2778 82.388 85.8698 81.992C85.4618 81.584 85.1438 81.092 84.9158 80.516C84.6878 79.94 84.5738 79.28 84.5738 78.536C84.5738 77.816 84.6938 77.168 84.9338 76.592C85.1738 76.004 85.4858 75.512 85.8698 75.116C86.2658 74.708 86.7158 74.396 87.2198 74.18C87.7238 73.964 88.2458 73.856 88.7858 73.856C89.4218 73.856 89.9738 73.964 90.4418 74.18C90.9218 74.396 91.3178 74.696 91.6298 75.08C91.9538 75.464 92.1938 75.92 92.3498 76.448C92.5058 76.964 92.5838 77.528 92.5838 78.14C92.5838 78.38 92.5718 78.608 92.5478 78.824C92.5238 79.04 92.4998 79.202 92.4758 79.31H87.1298C87.2498 79.958 87.5138 80.438 87.9218 80.75C88.3418 81.05 88.8518 81.2 89.4518 81.2C90.0878 81.2 90.7298 81.002 91.3778 80.606L92.2598 82.208C91.8038 82.52 91.2938 82.766 90.7298 82.946C90.1778 83.126 89.6318 83.216 89.0918 83.216ZM87.1118 77.564H90.3338C90.3338 77.06 90.2198 76.652 89.9918 76.34C89.7638 76.028 89.3798 75.872 88.8398 75.872C88.4198 75.872 88.0478 76.01 87.7238 76.286C87.4118 76.562 87.2078 76.988 87.1118 77.564ZM94.4122 83V74.072H96.5722L96.7522 75.206H96.8242C97.2082 74.846 97.6282 74.534 98.0842 74.27C98.5402 73.994 99.0742 73.856 99.6862 73.856C100.658 73.856 101.36 74.174 101.792 74.81C102.236 75.446 102.458 76.328 102.458 77.456V83H99.8122V77.798C99.8122 77.15 99.7222 76.706 99.5422 76.466C99.3742 76.226 99.0982 76.106 98.7142 76.106C98.3782 76.106 98.0902 76.184 97.8502 76.34C97.6102 76.484 97.3462 76.694 97.0582 76.97V83H94.4122Z" fill="#102723"/>
<path fill-rule="evenodd" clip-rule="evenodd" d="M65 61V40.705L72.5455 48L74 46.6254L64 37L54 46.6254L55.4545 48L63 40.705V61H65Z" fill="#102723"/>
</g>
<defs>
<filter id="filter0_ddd" x="0" y="0" width="126" height="126" filterUnits="userSpaceOnUse" color-interpolation-filters="sRGB">
<feFlood flood-opacity="0" result="BackgroundImageFix"/>
<feColorMatrix in="SourceAlpha" type="matrix" values="0 0 0 0 0 0 0 0 0 0 0 0 0 0 0 0 0 0 127 0"/>
<feOffset dy="2"/>
<feGaussianBlur stdDeviation="0.5"/>
<feColorMatrix type="matrix" values="0 0 0 0 0.054902 0 0 0 0 0.0823529 0 0 0 0 0.227451 0 0 0 0.2 0"/>
<feBlend mode="normal" in2="BackgroundImageFix" result="effect1_dropShadow"/>
<feColorMatrix in="SourceAlpha" type="matrix" values="0 0 0 0 0 0 0 0 0 0 0 0 0 0 0 0 0 0 127 0"/>
<feOffset dy="1"/>
<feGaussianBlur stdDeviation="0.5"/>
<feColorMatrix type="matrix" values="0 0 0 0 0.054902 0 0 0 0 0.0823529 0 0 0 0 0.227451 0 0 0 0.14 0"/>
<feBlend mode="normal" in2="effect1_dropShadow" result="effect2_dropShadow"/>
<feColorMatrix in="SourceAlpha" type="matrix" values="0 0 0 0 0 0 0 0 0 0 0 0 0 0 0 0 0 0 127 0"/>
<feOffset dy="1"/>
<feGaussianBlur stdDeviation="1.5"/>
<feColorMatrix type="matrix" values="0 0 0 0 0.054902 0 0 0 0 0.0823529 0 0 0 0 0.227451 0 0 0 0.12 0"/>
<feBlend mode="normal" in2="effect2_dropShadow" result="effect3_dropShadow"/>
<feBlend mode="normal" in="SourceGraphic" in2="effect3_dropShadow" result="shape"/>
</filter>
</defs>
</svg>
