<svg width="121" height="121" viewBox="0 0 121 121" fill="none" xmlns="http://www.w3.org/2000/svg">
  <path fill-rule="evenodd" clip-rule="evenodd" d="M56 112C86.9279 112 112 86.9279 112 56C112 25.0721 86.9279 0 56 0C25.0721 0 0 25.0721 0 56C0 86.9279 25.0721 112 56 112Z" fill="#DFDFDF"/>
  <path d="M89.5 114.286C100.684 114.286 109.75 103.263 109.75 89.6667C109.75 76.0699 100.684 65.0476 89.5 65.0476C78.3162 65.0476 69.25 76.0699 69.25 89.6667C69.25 103.263 78.3162 114.286 89.5 114.286Z" fill="#D87F0A"/>
  <path d="M89.5 105.333C96.9558 105.333 103 99.321 103 91.9046C103 84.4882 96.9558 78.4761 89.5 78.4761C82.0442 78.4761 76 84.4882 76 91.9046C76 99.321 82.0442 105.333 89.5 105.333Z" fill="#FFD399"/>
  <path d="M107.497 121C114.952 121 120.995 114.988 120.995 107.571C120.995 100.155 114.952 94.1428 107.497 94.1428C100.043 94.1428 94 100.155 94 107.571C94 114.988 100.043 121 107.497 121Z" fill="#D87F0A"/>
  <path d="M107.5 116.524C111.228 116.524 114.25 113.518 114.25 109.81C114.25 106.101 111.228 103.095 107.5 103.095C103.772 103.095 100.75 106.101 100.75 109.81C100.75 113.518 103.772 116.524 107.5 116.524Z" fill="#F8CEA0"/>
  <path d="M107.5 100.857C108.743 100.857 109.75 99.855 109.75 98.619C109.75 97.3829 108.743 96.3809 107.5 96.3809C106.257 96.3809 105.25 97.3829 105.25 98.619C105.25 99.855 106.257 100.857 107.5 100.857Z" fill="#F8CEA0"/>
  <path d="M114.25 103.095C115.493 103.095 116.5 102.093 116.5 100.857C116.5 99.6209 115.493 98.6189 114.25 98.6189C113.007 98.6189 112 99.6209 112 100.857C112 102.093 113.007 103.095 114.25 103.095Z" fill="#F8CEA0"/>
  <path d="M100.75 103.095C101.993 103.095 103 102.093 103 100.857C103 99.6209 101.993 98.6189 100.75 98.6189C99.5074 98.6189 98.5 99.6209 98.5 100.857C98.5 102.093 99.5074 103.095 100.75 103.095Z" fill="#F8CEA0"/>
  <path d="M71.4975 121C78.9519 121 84.9949 114.988 84.9949 107.571C84.9949 100.155 78.9519 94.1428 71.4975 94.1428C64.043 94.1428 58 100.155 58 107.571C58 114.988 64.043 121 71.4975 121Z" fill="#D87F0A"/>
  <path d="M71.5 116.524C75.2279 116.524 78.25 113.518 78.25 109.81C78.25 106.101 75.2279 103.095 71.5 103.095C67.7721 103.095 64.75 106.101 64.75 109.81C64.75 113.518 67.7721 116.524 71.5 116.524Z" fill="#F8CEA0"/>
  <path d="M71.5 100.857C72.7426 100.857 73.75 99.855 73.75 98.619C73.75 97.3829 72.7426 96.3809 71.5 96.3809C70.2574 96.3809 69.25 97.3829 69.25 98.619C69.25 99.855 70.2574 100.857 71.5 100.857Z" fill="#F8CEA0"/>
  <path d="M78.25 103.095C79.4926 103.095 80.5 102.093 80.5 100.857C80.5 99.6209 79.4926 98.6189 78.25 98.6189C77.0074 98.6189 76 99.6209 76 100.857C76 102.093 77.0074 103.095 78.25 103.095Z" fill="#F8CEA0"/>
  <path d="M64.75 103.095C65.9926 103.095 67 102.093 67 100.857C67 99.6209 65.9926 98.6189 64.75 98.6189C63.5074 98.6189 62.5 99.6209 62.5 100.857C62.5 102.093 63.5074 103.095 64.75 103.095Z" fill="#F8CEA0"/>
  <path d="M89.5 78.4761C104.412 78.4761 116.5 67.4538 116.5 53.8571C116.5 40.2604 104.412 29.238 89.5 29.238C74.5883 29.238 62.5 40.2604 62.5 53.8571C62.5 67.4538 74.5883 78.4761 89.5 78.4761Z" fill="#D87F0A"/>
  <path d="M80.4742 51.8732C81.6977 52.0895 83.0356 50.2906 83.4627 47.8552C83.8897 45.4198 83.244 43.2702 82.0206 43.0539C80.7971 42.8377 79.4591 44.6366 79.0321 47.072C78.6051 49.5073 79.2507 51.6569 80.4742 51.8732Z" fill="#262626"/>
  <path d="M97.7704 51.8732C96.547 52.0895 95.209 50.2906 94.782 47.8552C94.3549 45.4198 95.0006 43.2702 96.2241 43.0539C97.4475 42.8377 98.7855 44.6366 99.2125 47.072C99.6395 49.5073 98.9939 51.6569 97.7704 51.8732Z" fill="#262626"/>
  <path d="M89.5 74C96.9558 74 103 67.9878 103 60.5714C103 53.155 96.9558 47.1428 89.5 47.1428C82.0442 47.1428 76 53.155 76 60.5714C76 67.9878 82.0442 74 89.5 74Z" fill="#FFD399"/>
  <path d="M109.75 44.9048C104.779 44.9048 100.75 40.8966 100.75 35.9524C100.75 31.0081 104.779 27 109.75 27C114.721 27 118.75 31.0081 118.75 35.9524C118.75 40.8966 114.721 44.9048 109.75 44.9048Z" fill="#D87F0A"/>
  <path d="M109.75 40.4285C107.265 40.4285 105.25 38.4244 105.25 35.9523C105.25 33.4801 107.265 31.4761 109.75 31.4761C112.235 31.4761 114.25 33.4801 114.25 35.9523C114.25 38.4244 112.235 40.4285 109.75 40.4285Z" fill="#FFD399"/>
  <path d="M69.25 44.9048C74.2206 44.9048 78.25 40.8966 78.25 35.9524C78.25 31.0081 74.2206 27 69.25 27C64.2794 27 60.25 31.0081 60.25 35.9524C60.25 40.8966 64.2794 44.9048 69.25 44.9048Z" fill="#D87F0A"/>
  <path d="M69.25 40.4285C71.7353 40.4285 73.75 38.4244 73.75 35.9523C73.75 33.4801 71.7353 31.4761 69.25 31.4761C66.7647 31.4761 64.75 33.4801 64.75 35.9523C64.75 38.4244 66.7647 40.4285 69.25 40.4285Z" fill="#FFD399"/>
  <path d="M89.5 62.8096C91.9853 62.8096 94 60.8055 94 58.3334C94 55.8612 91.9853 53.8572 89.5 53.8572C87.0147 53.8572 85 55.8612 85 58.3334C85 60.8055 87.0147 62.8096 89.5 62.8096Z" fill="#8B5F26"/>
  <path d="M76 71.762C76 71.762 67.4286 74.4477 63.1429 79.8191C58.8571 85.1905 58 90.562 58 93.2477C58 95.9334 59.2857 98.6191 63.1429 98.6191C67 98.6191 68.2857 94.1429 68.2857 94.1429C68.2857 94.1429 70.8571 83.4001 73.4286 79.8191C76 76.2382 76 71.762 76 71.762Z" fill="#D87F0A"/>
  <path d="M103 71.762C103 71.762 111.571 74.4477 115.857 79.8191C120.143 85.1905 121 90.562 121 93.2477C121 95.9334 119.714 98.6191 115.857 98.6191C112 98.6191 110.714 94.1429 110.714 94.1429C110.714 94.1429 108.143 83.4001 105.571 79.8191C103 76.2382 103 71.762 103 71.762Z" fill="#D87F0A"/>
</svg>
