<svg width="25" height="25" viewBox="0 0 25 25" fill="none" xmlns="http://www.w3.org/2000/svg">
<path fill-rule="evenodd" clip-rule="evenodd" d="M15.998 18.4593C15.998 19.5639 16.8935 20.4593 17.998 20.4593H23.7274C24.0676 20.4593 24.388 20.3744 24.6685 20.2245V23.002C24.6685 23.2868 24.728 23.5577 24.8353 23.8029C24.5265 24.5088 23.8219 25.0021 23.0021 25.0021H2C0.89543 25.0021 0 24.1066 0 23.0021V2C0 0.89543 0.895431 0 2 0H23.0021C23.8219 0 24.5264 0.493222 24.8353 1.19911C24.728 1.44431 24.6685 1.71518 24.6685 1.99995V4.74154C24.388 4.59169 24.0676 4.50673 23.7274 4.50673H17.998C16.8935 4.50673 15.998 5.40216 15.998 6.50673L15.998 7.50287C15.998 8.60744 16.8935 9.50287 17.998 9.50287H23.7274C24.0676 9.50287 24.388 9.41792 24.6685 9.26807V15.698C24.388 15.5481 24.0676 15.4632 23.7274 15.4632H17.998C16.8935 15.4632 15.998 16.3586 15.998 17.4632V18.4593Z" fill="white"/>
</svg>
