<svg width="96" height="76" viewBox="0 0 91 73" fill="none" xmlns="http://www.w3.org/2000/svg">
<g opacity="0.7">
<rect width="64" height="64" rx="32" fill="#E0D8E9"/>
</g>
<path fill-rule="evenodd" clip-rule="evenodd" d="M72.96 45.28H75.52V26.08C75.52 25.911 75.4842 25.7421 75.4202 25.5885C75.3562 25.4298 75.2589 25.2915 75.1437 25.1738L62.3488 12.3789C62.231 12.2611 62.0902 12.1664 61.9341 12.1024C61.7779 12.0358 61.609 12 61.44 12H33.28C32.5734 12 32 12.5734 32 13.28V67.04C32 67.7466 32.5734 68.32 33.28 68.32H56.32V65.76H34.56V14.56H60.16V26.08C60.16 26.7866 60.7334 27.36 61.44 27.36H72.96V45.28ZM62.72 16.3699L71.1501 24.8H62.72V16.3699ZM93.0662 49.4938L86.6662 43.0938C86.185 42.6125 85.335 42.6125 84.8563 43.0938L65.6538 62.2989C65.5078 62.4448 65.4157 62.6214 65.3568 62.8032C65.3542 62.8122 65.3485 62.8198 65.3427 62.8275C65.337 62.8352 65.3312 62.8429 65.3286 62.8518L62.7686 71.8118C62.6406 72.2598 62.7635 72.7411 63.0938 73.0688C63.337 73.312 63.6646 73.4426 64 73.4426C64.1178 73.4426 64.2355 73.4272 64.3533 73.3914L73.3133 70.8314C73.3222 70.8288 73.3299 70.823 73.3376 70.8173C73.3453 70.8115 73.353 70.8058 73.3619 70.8032C73.5437 70.7443 73.7229 70.6496 73.8662 70.5062L93.0688 51.3011C93.568 50.8045 93.568 49.9955 93.0662 49.4938ZM72.96 67.7952L68.3699 63.2051L80.6426 50.9299L85.2326 55.52L72.96 67.7952ZM70.5178 68.9728L67.1923 65.6474L65.8637 70.304L70.5178 68.9728ZM87.0426 53.7101L82.4525 49.12L85.7626 45.8099L90.3526 50.4L87.0426 53.7101Z" fill="#3E3832"/>
</svg>
