<svg width="96" height="96" viewBox="0 0 96 96" fill="none" xmlns="http://www.w3.org/2000/svg">
  <circle cx="48" cy="48" r="48" fill="#CCD9D7"/>
  <path fill-rule="evenodd" clip-rule="evenodd" d="M61.84 49.12H64.08V32.32C64.08 32.1722 64.0486 32.0243 63.9926 31.8899C63.9366 31.751 63.8515 31.6301 63.7507 31.527L52.5552 20.3315C52.4522 20.2285 52.329 20.1456 52.1923 20.0896C52.0557 20.0314 51.9078 20 51.76 20H27.12C26.5018 20 26 20.5018 26 21.12V68.16C26 68.7782 26.5018 69.28 27.12 69.28H47.28V67.04H28.24V22.24H50.64V32.32C50.64 32.9382 51.1418 33.44 51.76 33.44H61.84V49.12ZM52.88 23.8237L60.2563 31.2H52.88V23.8237ZM79.433 52.807L73.833 47.207C73.4118 46.7859 72.6682 46.7859 72.2493 47.207L55.447 64.0115C55.3194 64.1392 55.2387 64.2938 55.1872 64.4528C55.185 64.4606 55.1799 64.4674 55.1749 64.4741C55.1698 64.4808 55.1648 64.4875 55.1626 64.4954L52.9226 72.3354C52.8106 72.7274 52.9181 73.1485 53.207 73.4352C53.4198 73.648 53.7066 73.7622 54 73.7622C54.103 73.7622 54.2061 73.7488 54.3091 73.7174L62.1491 71.4774C62.157 71.4752 62.1637 71.4702 62.1704 71.4651C62.1771 71.4601 62.1838 71.455 62.1917 71.4528C62.3507 71.4013 62.5075 71.3184 62.633 71.193L79.4352 54.3885C79.872 53.9539 79.872 53.2461 79.433 52.807ZM61.84 68.8208L57.8237 64.8045L68.5622 54.0637L72.5786 58.08L61.84 68.8208ZM59.703 69.8512L56.7933 66.9414L55.6307 71.016L59.703 69.8512ZM74.1622 56.4963L70.1459 52.48L73.0422 49.5837L77.0586 53.6L74.1622 56.4963Z" fill="#102723"/>
</svg>
  
