<svg width="64" height="64" viewBox="-22 -10 84 74" fill="none" xmlns="http://www.w3.org/2000/svg">
  <g opacity="0.7">
    <rect width="64" height="64" fill="#F1D8D4" x="-20" y="-10"/>
  </g>
  <path fill-rule="evenodd" clip-rule="evenodd"
    d="M11.5533 29.7198C11.5533 31.8369 9.83045 33.5598 7.71333 33.5598C5.59621 33.5598 3.87333 31.8369 3.87333 29.7198C3.87333 27.6027 5.59621 25.8798 7.71333 25.8798C8.42756 25.8798 9.08805 26.0897 9.66404 26.4302L19.4842 18.2433C19.328 17.8286 19.2333 17.3883 19.2333 16.9198C19.2333 14.8027 20.9562 13.0798 23.0733 13.0798C25.1648 13.0798 26.8647 14.7643 26.9056 16.8481L35.4202 19.6871C36.1268 18.7886 37.2071 18.1998 38.4333 18.1998C38.9172 18.1998 39.3805 18.2996 39.808 18.466L50.4781 6.02187C50.153 5.45867 49.9533 4.81355 49.9533 4.11979C49.9533 2.00267 51.6762 0.279785 53.7933 0.279785C55.9104 0.279785 57.6333 2.00267 57.6333 4.11979C57.6333 6.23691 55.9104 7.95979 53.7933 7.95979C53.3044 7.95979 52.8461 7.85995 52.416 7.69355L41.7485 20.1377C42.0736 20.7009 42.2733 21.346 42.2733 22.0398C42.2733 24.1569 40.5504 25.8798 38.4333 25.8798C36.3392 25.8798 34.6368 24.1953 34.601 22.1089L26.0864 19.2724C25.3824 20.171 24.2996 20.7598 23.0733 20.7598C22.3565 20.7598 21.6986 20.5499 21.1226 20.2094L11.3024 28.3963C11.4586 28.811 11.5533 29.2513 11.5533 29.7198ZM55.0733 4.11979C55.0733 3.41323 54.4973 2.83979 53.7933 2.83979C53.0868 2.83979 52.5133 3.41323 52.5133 4.11979C52.5133 4.82634 53.0893 5.39979 53.7933 5.39979C54.4973 5.39979 55.0733 4.82634 55.0733 4.11979ZM38.4333 20.7598C39.1373 20.7598 39.7133 21.3332 39.7133 22.0398C39.7133 22.7463 39.1373 23.3198 38.4333 23.3198C37.7293 23.3198 37.1533 22.7463 37.1533 22.0398C37.1533 21.977 37.1691 21.9199 37.1849 21.8624C37.193 21.8331 37.201 21.8038 37.2071 21.7735C37.2178 21.7522 37.2334 21.7363 37.2489 21.7206C37.2668 21.7024 37.2845 21.6845 37.2941 21.6583M38.4333 20.7598C37.9444 20.7598 37.5348 21.0439 37.3197 21.4459L38.4333 20.7598ZM37.3197 21.4459C37.316 21.4722 37.3146 21.4982 37.3133 21.5242L37.3197 21.4459ZM24.3533 16.9198C24.3533 16.2132 23.7773 15.6398 23.0733 15.6398C22.3668 15.6398 21.7933 16.2132 21.7933 16.9198C21.7933 17.6263 22.3693 18.1998 23.0733 18.1998C23.7773 18.1998 24.3533 17.6263 24.3533 16.9198ZM7.71332 28.4398C8.41733 28.4398 8.99333 29.0132 8.99333 29.7198C8.99333 30.4263 8.41733 30.9998 7.71332 30.9998C7.00933 30.9998 6.43332 30.4263 6.43332 29.7198C6.43332 29.0132 7.00676 28.4398 7.71332 28.4398ZM58.9133 59.1598H60.1933C60.8999 59.1598 61.4733 59.7332 61.4733 60.4398C61.4733 61.1463 60.8999 61.7198 60.1933 61.7198H57.6333H49.9533H42.2733H34.5933H26.9133H19.2333H11.5533H3.87333H1.31333C0.606765 61.7198 0.0333252 61.1463 0.0333252 60.4398C0.0333252 59.7332 0.606765 59.1598 1.31333 59.1598H2.59333V47.6398C2.59333 46.9332 3.16677 46.3598 3.87333 46.3598H11.5533C12.2599 46.3598 12.8333 46.9332 12.8333 47.6398V59.1598H17.9533V34.8398C17.9533 34.1332 18.5268 33.5598 19.2333 33.5598H26.9133C27.6199 33.5598 28.1933 34.1332 28.1933 34.8398V59.1598H33.3133V39.9598C33.3133 39.2532 33.8868 38.6798 34.5933 38.6798H42.2733C42.9799 38.6798 43.5533 39.2532 43.5533 39.9598V59.1598H48.6733V22.0398C48.6733 21.3332 49.2468 20.7598 49.9533 20.7598H57.6333C58.3399 20.7598 58.9133 21.3332 58.9133 22.0398V59.1598ZM5.15333 48.9198V59.1598H10.2733V48.9198H5.15333ZM35.8733 41.2398V59.1598H40.9933V41.2398H35.8733ZM20.5133 36.1198H25.6333V59.1598H20.5133V36.1198ZM51.2333 59.1598V23.3198H56.3533V59.1598H51.2333Z"
    fill="#3E3832"/>
</svg>
