<svg width="96" height="96" viewBox="0 0 96 96" fill="none" xmlns="http://www.w3.org/2000/svg">
  <circle cx="48" cy="48" r="48" fill="#CCD9D7"/>
  <path fill-rule="evenodd" clip-rule="evenodd" d="M30.1091 46.8801C30.1091 48.7326 28.6016 50.2401 26.7491 50.2401C24.8966 50.2401 23.3891 48.7326 23.3891 46.8801C23.3891 45.0276 24.8966 43.5201 26.7491 43.5201C27.3741 43.5201 27.952 43.7038 28.456 44.0017L37.0486 36.8382C36.912 36.4753 36.8291 36.09 36.8291 35.6801C36.8291 33.8276 38.3366 32.3201 40.1891 32.3201C42.0192 32.3201 43.5066 33.794 43.5424 35.6174L50.9926 38.1016C51.6109 37.3153 52.5562 36.8001 53.6291 36.8001C54.0525 36.8001 54.4579 36.8875 54.832 37.0331L64.1683 26.1444C63.8838 25.6516 63.7091 25.0872 63.7091 24.4801C63.7091 22.6276 65.2166 21.1201 67.0691 21.1201C68.9216 21.1201 70.4291 22.6276 70.4291 24.4801C70.4291 26.3326 68.9216 27.8401 67.0691 27.8401C66.6413 27.8401 66.2403 27.7528 65.864 27.6072L56.5299 38.4958C56.8144 38.9886 56.9891 39.5531 56.9891 40.1601C56.9891 42.0126 55.4816 43.5201 53.6291 43.5201C51.7968 43.5201 50.3072 42.0462 50.2758 40.2206L42.8256 37.7387C42.2096 38.5249 41.2621 39.0401 40.1891 39.0401C39.5619 39.0401 38.9862 38.8564 38.4822 38.5585L29.8896 45.722C30.0262 46.0849 30.1091 46.4702 30.1091 46.8801ZM68.1891 24.4801C68.1891 23.8619 67.6851 23.3601 67.0691 23.3601C66.4509 23.3601 65.9491 23.8619 65.9491 24.4801C65.9491 25.0984 66.4531 25.6001 67.0691 25.6001C67.6851 25.6001 68.1891 25.0984 68.1891 24.4801ZM53.6291 39.0401C54.2451 39.0401 54.7491 39.5419 54.7491 40.1601C54.7491 40.7784 54.2451 41.2801 53.6291 41.2801C53.0131 41.2801 52.5091 40.7784 52.5091 40.1601C52.5091 40.1052 52.5229 40.0552 52.5367 40.0049L52.5368 40.0048C52.5438 39.9792 52.5509 39.9536 52.5562 39.9272C52.5655 39.9085 52.5792 39.8946 52.5927 39.8809C52.6084 39.8649 52.6239 39.8492 52.6323 39.8264C52.6451 39.7867 52.6471 39.748 52.6491 39.709V39.7089C52.6502 39.6863 52.6514 39.6635 52.6547 39.6404C52.8429 39.2888 53.2013 39.0401 53.6291 39.0401ZM41.3091 35.6801C41.3091 35.0619 40.8051 34.5601 40.1891 34.5601C39.5709 34.5601 39.0691 35.0619 39.0691 35.6801C39.0691 36.2984 39.5731 36.8001 40.1891 36.8001C40.8051 36.8001 41.3091 36.2984 41.3091 35.6801ZM26.7491 45.7601C27.3651 45.7601 27.8691 46.2619 27.8691 46.8801C27.8691 47.4984 27.3651 48.0001 26.7491 48.0001C26.1331 48.0001 25.6291 47.4984 25.6291 46.8801C25.6291 46.2619 26.1309 45.7601 26.7491 45.7601ZM71.5491 72.6401H72.6691C73.2873 72.6401 73.7891 73.1419 73.7891 73.7601C73.7891 74.3784 73.2873 74.8801 72.6691 74.8801H70.4291H63.7091H56.9891H50.2691H43.5491H36.8291H30.1091H23.3891H21.1491C20.5309 74.8801 20.0291 74.3784 20.0291 73.7601C20.0291 73.1419 20.5309 72.6401 21.1491 72.6401H22.2691V62.5601C22.2691 61.9419 22.7709 61.4401 23.3891 61.4401H30.1091C30.7274 61.4401 31.2291 61.9419 31.2291 62.5601V72.6401H35.7091V51.3601C35.7091 50.7419 36.2109 50.2401 36.8291 50.2401H43.5491C44.1674 50.2401 44.6691 50.7419 44.6691 51.3601V72.6401H49.1491V55.8401C49.1491 55.2219 49.6509 54.7201 50.2691 54.7201H56.9891C57.6074 54.7201 58.1091 55.2219 58.1091 55.8401V72.6401H62.5891V40.1601C62.5891 39.5419 63.0909 39.0401 63.7091 39.0401H70.4291C71.0474 39.0401 71.5491 39.5419 71.5491 40.1601V72.6401ZM24.5091 63.6801V72.6401H28.9891V63.6801H24.5091ZM37.9491 52.4801H42.4291V72.6401H37.9491V52.4801ZM51.3891 56.9601V72.6401H55.8691V56.9601H51.3891ZM64.8291 72.6401V41.2801H69.3091V72.6401H64.8291Z" fill="#102723"/>
</svg>
  
