<svg width="91" height="73" viewBox="0 0 91 73" fill="none" xmlns="http://www.w3.org/2000/svg">
<g opacity="0.7">
<rect width="64" height="64" fill="#F1D8D4"/>
</g>
<path fill-rule="evenodd" clip-rule="evenodd" d="M38.5533 39.72C38.5533 41.8372 36.8304 43.56 34.7133 43.56C32.5962 43.56 30.8733 41.8372 30.8733 39.72C30.8733 37.6029 32.5962 35.88 34.7133 35.88C35.4276 35.88 36.088 36.09 36.664 36.4304L46.4842 28.2435C46.328 27.8288 46.2333 27.3885 46.2333 26.92C46.2333 24.8029 47.9562 23.08 50.0733 23.08C52.1648 23.08 53.8647 24.7645 53.9056 26.8484L62.4202 29.6874C63.1268 28.7888 64.2071 28.2 65.4333 28.2C65.9172 28.2 66.3805 28.2999 66.808 28.4663L77.4781 16.0221C77.153 15.4589 76.9533 14.8138 76.9533 14.12C76.9533 12.0029 78.6762 10.28 80.7933 10.28C82.9104 10.28 84.6333 12.0029 84.6333 14.12C84.6333 16.2371 82.9104 17.96 80.7933 17.96C80.3044 17.96 79.8461 17.8602 79.416 17.6938L68.7485 30.138C69.0736 30.7012 69.2733 31.3463 69.2733 32.04C69.2733 34.1572 67.5504 35.88 65.4333 35.88C63.3392 35.88 61.6368 34.1955 61.601 32.1091L53.0864 29.2727C52.3824 30.1712 51.2996 30.76 50.0733 30.76C49.3565 30.76 48.6986 30.5501 48.1226 30.2096L38.3024 38.3965C38.4586 38.8112 38.5533 39.2516 38.5533 39.72ZM82.0733 14.12C82.0733 13.4135 81.4973 12.84 80.7933 12.84C80.0868 12.84 79.5133 13.4135 79.5133 14.12C79.5133 14.8266 80.0893 15.4 80.7933 15.4C81.4973 15.4 82.0733 14.8266 82.0733 14.12ZM65.4333 30.76C66.1373 30.76 66.7133 31.3335 66.7133 32.04C66.7133 32.7466 66.1373 33.32 65.4333 33.32C64.7293 33.32 64.1533 32.7466 64.1533 32.04C64.1533 31.9773 64.1691 31.9201 64.1849 31.8626C64.193 31.8334 64.201 31.804 64.2071 31.7738C64.2178 31.7524 64.2334 31.7366 64.2489 31.7209C64.2668 31.7027 64.2845 31.6847 64.2941 31.6586M65.4333 30.76C64.9444 30.76 64.5348 31.0442 64.3197 31.4461L65.4333 30.76ZM64.3197 31.4461C64.316 31.4724 64.3146 31.4984 64.3133 31.5244L64.3197 31.4461ZM51.3533 26.92C51.3533 26.2135 50.7773 25.64 50.0733 25.64C49.3668 25.64 48.7933 26.2135 48.7933 26.92C48.7933 27.6266 49.3693 28.2 50.0733 28.2C50.7773 28.2 51.3533 27.6266 51.3533 26.92ZM34.7133 38.44C35.4173 38.44 35.9933 39.0135 35.9933 39.72C35.9933 40.4266 35.4173 41 34.7133 41C34.0093 41 33.4333 40.4266 33.4333 39.72C33.4333 39.0135 34.0068 38.44 34.7133 38.44ZM85.9133 69.16H87.1933C87.8999 69.16 88.4733 69.7335 88.4733 70.44C88.4733 71.1466 87.8999 71.72 87.1933 71.72H84.6333H76.9533H69.2733H61.5933H53.9133H46.2333H38.5533H30.8733H28.3133C27.6068 71.72 27.0333 71.1466 27.0333 70.44C27.0333 69.7335 27.6068 69.16 28.3133 69.16H29.5933V57.64C29.5933 56.9335 30.1668 56.36 30.8733 56.36H38.5533C39.2599 56.36 39.8333 56.9335 39.8333 57.64V69.16H44.9533V44.84C44.9533 44.1335 45.5268 43.56 46.2333 43.56H53.9133C54.6199 43.56 55.1933 44.1335 55.1933 44.84V69.16H60.3133V49.96C60.3133 49.2535 60.8868 48.68 61.5933 48.68H69.2733C69.9799 48.68 70.5533 49.2535 70.5533 49.96V69.16H75.6733V32.04C75.6733 31.3335 76.2468 30.76 76.9533 30.76H84.6333C85.3399 30.76 85.9133 31.3335 85.9133 32.04V69.16ZM32.1533 58.92V69.16H37.2733V58.92H32.1533ZM62.8733 51.24V69.16H67.9933V51.24H62.8733ZM47.5133 46.12H52.6333V69.16H47.5133V46.12ZM78.2333 69.16V33.32H83.3533V69.16H78.2333Z" fill="#3E3832"/>
</svg>
