<svg width="91" height="73" viewBox="0 0 111 95" fill="none" xmlns="http://www.w3.org/2000/svg">
<g opacity="0.7">
<rect width="64" height="64" transform="translate(45.2549) rotate(45)" fill="#CDE7D8"/>
</g>
<path fill-rule="evenodd" clip-rule="evenodd" d="M100.793 32.28C100.583 32.28 100.38 32.308 100.177 32.3361L100.177 32.3361C100.098 32.347 100.02 32.3578 99.9408 32.3671C99.8052 32.3184 99.6644 32.28 99.5133 32.28H68.7933C63.8525 32.28 59.8333 36.2992 59.8333 41.24V75.8H55.9933C51.0525 75.8 47.0333 79.8192 47.0333 84.76C47.0333 89.7008 51.0525 93.72 55.9933 93.72H86.7133C91.6541 93.72 95.6733 89.7008 95.6733 84.76V42.52H107.193C107.9 42.52 108.473 41.9466 108.473 41.24C108.473 35.9639 105.314 32.28 100.793 32.28ZM55.9933 91.16C52.4656 91.16 49.5933 88.2903 49.5933 84.76C49.5933 81.2298 52.4656 78.36 55.9933 78.36H80.449C78.7876 79.9882 77.7533 82.2538 77.7533 84.76C77.7533 87.2663 78.785 89.5319 80.449 91.16H55.9933ZM86.7133 91.16C90.241 91.16 93.1133 88.2903 93.1133 84.76V39.96C93.1133 37.9863 93.8839 36.2019 95.1101 34.84H68.7933C65.2656 34.84 62.3933 37.7123 62.3933 41.24V75.8H86.7133C87.4199 75.8 87.9933 76.3735 87.9933 77.08C87.9933 77.7866 87.4199 78.36 86.7133 78.36C83.1856 78.36 80.3133 81.2298 80.3133 84.76C80.3133 88.2903 83.1856 91.16 86.7133 91.16ZM95.6733 39.96C95.6733 37.1363 97.9696 34.84 100.793 34.84C103.502 34.84 105.422 36.8496 105.831 39.96H95.6733ZM84.1533 45.08H70.0733C69.3668 45.08 68.7933 45.6535 68.7933 46.36C68.7933 47.0666 69.3642 47.64 70.0733 47.64H84.1533C84.8599 47.64 85.4333 47.0666 85.4333 46.36C85.4333 45.6535 84.8599 45.08 84.1533 45.08ZM84.1533 52.76H70.0733C69.3668 52.76 68.7933 53.3335 68.7933 54.04C68.7933 54.7466 69.3642 55.32 70.0733 55.32H84.1533C84.8599 55.32 85.4333 54.7466 85.4333 54.04C85.4333 53.3335 84.8599 52.76 84.1533 52.76ZM70.0733 60.44H84.1533C84.8599 60.44 85.4333 61.0135 85.4333 61.72C85.4333 62.4266 84.8599 63 84.1533 63H70.0733C69.3668 63 68.7933 62.4266 68.7933 61.72C68.7933 61.0135 69.3668 60.44 70.0733 60.44ZM84.1533 68.12H70.0733C69.3668 68.12 68.7933 68.6935 68.7933 69.4C68.7933 70.1066 69.3668 70.68 70.0733 70.68H84.1533C84.8599 70.68 85.4333 70.1066 85.4333 69.4C85.4333 68.6935 84.8599 68.12 84.1533 68.12Z" fill="#3E3832"/>
</svg>
