<svg width="96" height="96" viewBox="0 0 96 96" fill="none" xmlns="http://www.w3.org/2000/svg">
  <circle cx="48" cy="48" r="48" fill="#CCD9D7"/>
  <path fill-rule="evenodd" clip-rule="evenodd" d="M67.0691 21.1201C66.8848 21.1201 66.7075 21.1446 66.5296 21.1692C66.461 21.1787 66.3924 21.1882 66.3232 21.1963C66.2045 21.1537 66.0813 21.1201 65.9491 21.1201H39.0691C34.7459 21.1201 31.2291 24.6369 31.2291 28.9601V59.2001H27.8691C23.5459 59.2001 20.0291 62.7169 20.0291 67.0401C20.0291 71.3633 23.5459 74.8801 27.8691 74.8801H54.7491C59.0723 74.8801 62.5891 71.3633 62.5891 67.0401V30.0801H72.6691C73.2873 30.0801 73.7891 29.5784 73.7891 28.9601C73.7891 24.3435 71.025 21.1201 67.0691 21.1201ZM27.8691 72.6401C24.7824 72.6401 22.2691 70.1291 22.2691 67.0401C22.2691 63.9512 24.7824 61.4401 27.8691 61.4401H49.2678C47.8141 62.8648 46.9091 64.8472 46.9091 67.0401C46.9091 69.2331 47.8118 71.2155 49.2678 72.6401H27.8691ZM54.7491 72.6401C57.8358 72.6401 60.3491 70.1291 60.3491 67.0401V27.8401C60.3491 26.1131 61.0234 24.5518 62.0963 23.3601H39.0691C35.9824 23.3601 33.4691 25.8734 33.4691 28.9601V59.2001H54.7491C55.3674 59.2001 55.8691 59.7019 55.8691 60.3201C55.8691 60.9384 55.3674 61.4401 54.7491 61.4401C51.6624 61.4401 49.1491 63.9512 49.1491 67.0401C49.1491 70.1291 51.6624 72.6401 54.7491 72.6401ZM62.5891 27.8401C62.5891 25.3694 64.5984 23.3601 67.0691 23.3601C69.439 23.3601 71.119 25.1185 71.4774 27.8401H62.5891ZM52.5091 32.3201H40.1891C39.5709 32.3201 39.0691 32.8219 39.0691 33.4401C39.0691 34.0584 39.5686 34.5601 40.1891 34.5601H52.5091C53.1274 34.5601 53.6291 34.0584 53.6291 33.4401C53.6291 32.8219 53.1274 32.3201 52.5091 32.3201ZM52.5091 39.0401H40.1891C39.5709 39.0401 39.0691 39.5419 39.0691 40.1601C39.0691 40.7784 39.5686 41.2801 40.1891 41.2801H52.5091C53.1274 41.2801 53.6291 40.7784 53.6291 40.1601C53.6291 39.5419 53.1274 39.0401 52.5091 39.0401ZM40.1891 45.7601H52.5091C53.1274 45.7601 53.6291 46.2619 53.6291 46.8801C53.6291 47.4984 53.1274 48.0001 52.5091 48.0001H40.1891C39.5709 48.0001 39.0691 47.4984 39.0691 46.8801C39.0691 46.2619 39.5709 45.7601 40.1891 45.7601ZM52.5091 52.4801H40.1891C39.5709 52.4801 39.0691 52.9819 39.0691 53.6001C39.0691 54.2184 39.5709 54.7201 40.1891 54.7201H52.5091C53.1274 54.7201 53.6291 54.2184 53.6291 53.6001C53.6291 52.9819 53.1274 52.4801 52.5091 52.4801Z" fill="#102723"/>
 </svg>
  
