<svg width="91" height="91" viewBox="0 0 110 110" fill="none" xmlns="http://www.w3.org/2000/svg">
  <rect width="91" height="91" fill="#E5E5E5"/>
  <g clip-path="url(#clip0)">
    <rect width="1440" height="1881" transform="translate(-1006 -396)" fill="#F8F8F8"/>
    <rect x="-101.5" y="-35.5" width="330" height="418" rx="3.5" fill="white"/>
    <g opacity="0.7">
      <rect width="64" height="64" transform="translate(45.2549) rotate(45)" fill="#CDE7D8"/>
    </g>
    <path fill-rule="evenodd" clip-rule="evenodd"
      d="M100.793 32.2798C100.583 32.2798 100.38 32.3078 100.177 32.3359L100.177 32.3359C100.098 32.3467 100.02 32.3576 99.9408 32.3668C99.8052 32.3182 99.6644 32.2798 99.5133 32.2798H68.7933C63.8525 32.2798 59.8333 36.299 59.8333 41.2398V75.7998H55.9933C51.0525 75.7998 47.0333 79.819 47.0333 84.7598C47.0333 89.7006 51.0525 93.7198 55.9933 93.7198H86.7133C91.6541 93.7198 95.6733 89.7006 95.6733 84.7598V42.5198H107.193C107.9 42.5198 108.473 41.9463 108.473 41.2398C108.473 35.9636 105.314 32.2798 100.793 32.2798ZM55.9933 91.1598C52.4656 91.1598 49.5933 88.29 49.5933 84.7598C49.5933 81.2295 52.4656 78.3598 55.9933 78.3598H80.449C78.7876 79.9879 77.7533 82.2535 77.7533 84.7598C77.7533 87.266 78.785 89.5316 80.449 91.1598H55.9933ZM86.7133 91.1598C90.241 91.1598 93.1133 88.29 93.1133 84.7598V39.9598C93.1133 37.986 93.8839 36.2017 95.1101 34.8398H68.7933C65.2656 34.8398 62.3933 37.7121 62.3933 41.2398V75.7998H86.7133C87.4199 75.7998 87.9933 76.3732 87.9933 77.0798C87.9933 77.7863 87.4199 78.3598 86.7133 78.3598C83.1856 78.3598 80.3133 81.2295 80.3133 84.7598C80.3133 88.29 83.1856 91.1598 86.7133 91.1598ZM95.6733 39.9598C95.6733 37.1361 97.9696 34.8398 100.793 34.8398C103.502 34.8398 105.422 36.8494 105.831 39.9598H95.6733ZM84.1533 45.0798H70.0733C69.3668 45.0798 68.7933 45.6532 68.7933 46.3598C68.7933 47.0663 69.3642 47.6398 70.0733 47.6398H84.1533C84.8599 47.6398 85.4333 47.0663 85.4333 46.3598C85.4333 45.6532 84.8599 45.0798 84.1533 45.0798ZM84.1533 52.7598H70.0733C69.3668 52.7598 68.7933 53.3332 68.7933 54.0398C68.7933 54.7463 69.3642 55.3198 70.0733 55.3198H84.1533C84.8599 55.3198 85.4333 54.7463 85.4333 54.0398C85.4333 53.3332 84.8599 52.7598 84.1533 52.7598ZM70.0733 60.4398H84.1533C84.8599 60.4398 85.4333 61.0132 85.4333 61.7198C85.4333 62.4263 84.8599 62.9998 84.1533 62.9998H70.0733C69.3668 62.9998 68.7933 62.4263 68.7933 61.7198C68.7933 61.0132 69.3668 60.4398 70.0733 60.4398ZM84.1533 68.1198H70.0733C69.3668 68.1198 68.7933 68.6932 68.7933 69.3998C68.7933 70.1063 69.3668 70.6798 70.0733 70.6798H84.1533C84.8599 70.6798 85.4333 70.1063 85.4333 69.3998C85.4333 68.6932 84.8599 68.1198 84.1533 68.1198Z"
      fill="#3E3832"/>
    <rect x="-101.5" y="-35.5" width="330" height="418" rx="3.5" stroke="#F1F1F1"/>
  </g>
  <defs>
    <clipPath id="clip0">
      <rect width="1440" height="1881" fill="white" transform="translate(-1006 -396)"/>
    </clipPath>
  </defs>
</svg>
